<svg xmlns="http://www.w3.org/2000/svg" xmlns:xlink="http://www.w3.org/1999/xlink" width="1080" zoomAndPan="magnify" viewBox="0 0 810 809.999993" height="1080" preserveAspectRatio="xMidYMid meet" version="1.0"><defs><clipPath id="id1"><path d="M 236.515625 193.640625 L 586.421875 193.640625 L 586.421875 692.921875 L 236.515625 692.921875 Z M 236.515625 193.640625 " clip-rule="nonzero"/></clipPath><clipPath id="id2"><path d="M 573 312 L 600.277344 312 L 600.277344 334 L 573 334 Z M 573 312 " clip-rule="nonzero"/></clipPath><clipPath id="id3"><path d="M 209.71875 320.507812 L 234 320.507812 L 234 349.195312 L 209.71875 349.195312 Z M 209.71875 320.507812 " clip-rule="nonzero"/></clipPath><clipPath id="id4"><path d="M 435 168 L 460 168 L 460 193.347656 L 435 193.347656 Z M 435 168 " clip-rule="nonzero"/></clipPath></defs><g clip-path="url(#id1)"><path fill="#000000" d="M 455.285156 662.164062 C 451.449219 662.160156 444.632812 659.496094 443.960938 663.710938 C 445.125 666.835938 450.757812 665.492188 454.769531 665.769531 C 453.539062 672.609375 452.269531 679.402344 450.136719 685.339844 C 447.65625 686.289062 443.625 685.6875 440.355469 685.855469 C 439.878906 681.867188 437.730469 679.554688 437.78125 675.039062 C 439.617188 675.136719 444.832031 676.972656 444.988281 674.007812 C 444.894531 670.496094 439.984375 671.808594 436.753906 671.433594 C 435.367188 666.640625 435.53125 660.300781 434.179688 655.472656 C 441.996094 655.738281 449.054688 655.246094 455.800781 654.441406 C 455.960938 657.347656 454.886719 659.019531 455.285156 662.164062 Z M 380.636719 645.171875 C 380.691406 647.972656 380.488281 650.515625 379.609375 652.382812 C 378.179688 650.988281 371.878906 650.34375 371.886719 653.410156 C 373.277344 655.277344 376.800781 655.015625 380.121094 654.957031 C 379.464844 660.992188 378.566406 666.789062 377.546875 672.464844 C 373.601562 672.464844 369.65625 672.464844 365.707031 672.464844 C 363.816406 670.066406 363.039062 666.550781 363.132812 662.164062 C 365.644531 661.585938 370.714844 663.570312 370.855469 660.621094 C 370.835938 657.269531 364.882812 657.476562 362.621094 658.046875 C 362.730469 653.078125 360.191406 645.4375 362.621094 641.566406 C 368.4375 642.953125 374.996094 643.605469 380.636719 645.171875 Z M 560.824219 595.734375 C 559.117188 600.722656 556.03125 604.332031 553.613281 608.609375 C 545.492188 605.015625 536.316406 610.828125 537.140625 617.363281 C 537.714844 621.917969 542.78125 621.140625 545.378906 624.574219 C 541.972656 627.347656 540.347656 631.902344 536.113281 633.84375 C 528.015625 632.15625 525.867188 624.523438 525.300781 615.304688 C 530.625 608.785156 535.726562 602.046875 537.65625 592.132812 C 546.003906 590.730469 555.367188 592.550781 560.824219 595.734375 Z M 458.890625 568.957031 C 461.742188 579.492188 473.578125 585.300781 479.484375 591.617188 C 477.117188 608.304688 478.234375 628.472656 475.878906 645.171875 C 465.039062 646.863281 454.753906 649.105469 443.960938 650.835938 C 444.734375 613.660156 447.011719 573.574219 447.5625 534.457031 C 454.824219 535.707031 459.925781 532.066406 465.582031 533.425781 C 460.21875 541.667969 455.4375 556.214844 458.890625 568.957031 Z M 494.925781 596.765625 C 485.398438 590.140625 475.628906 584.019531 469.1875 576.683594 C 461.902344 568.386719 461.628906 546.253906 468.671875 536.515625 C 470.265625 534.316406 474.933594 531.039062 478.964844 531.882812 C 481.03125 540.460938 489.558594 542.570312 492.867188 549.90625 C 488.382812 557.636719 480.214844 567.078125 481.542969 577.199219 C 486.472656 575.941406 487.292969 569.789062 489.261719 565.871094 C 491.453125 561.515625 493.835938 557.347656 495.957031 553.507812 C 501.007812 559.613281 506.859375 564.917969 512.429688 570.503906 C 510.632812 577.34375 502.558594 583.214844 504.707031 590.585938 C 510.773438 587.558594 512.773438 580.460938 515.003906 573.59375 C 519.445312 577.632812 531.875 582.644531 533.023438 589.042969 C 534.667969 598.222656 525.738281 605.207031 521.695312 611.699219 C 510.207031 609.457031 504.328125 603.304688 494.925781 596.765625 Z M 337.394531 555.054688 C 331.519531 554.136719 326.027344 557.597656 319.375 558.144531 C 303.335938 559.460938 285.863281 555.136719 273.039062 551.964844 C 274.304688 547.132812 272.625 542.542969 273.039062 537.03125 C 277.8125 534.769531 281.695312 531.613281 287.972656 530.851562 C 289.390625 537.15625 288.382812 545.890625 293.121094 548.875 C 296.871094 544.003906 292.042969 535.960938 291.574219 530.335938 C 298.679688 528.519531 306.324219 527.242188 314.742188 526.730469 C 315.625 530.933594 318.265625 536.183594 317.832031 541.152344 C 317.632812 543.414062 315.824219 544.207031 316.800781 546.300781 C 326.921875 547.53125 321.382812 531.335938 318.859375 526.21875 C 324.820312 525.3125 332.207031 525.835938 338.9375 525.703125 C 338.441406 535.507812 338.214844 545.578125 337.394531 555.054688 Z M 268.921875 534.972656 C 270.84375 541.976562 267.355469 550.636719 268.921875 558.144531 C 266.082031 565.285156 257.851562 571.859375 247.296875 567.929688 C 246.113281 564.136719 245.871094 559.40625 245.753906 554.539062 C 259.40625 555.5 254.625 537.578125 244.210938 538.578125 C 243.746094 533.035156 243.558594 527.214844 243.695312 521.066406 C 254.183594 520.386719 267.425781 529.523438 268.921875 534.972656 Z M 425.941406 531.882812 C 424.71875 566.535156 422.367188 600.058594 419.25 632.8125 C 410.890625 635.796875 400.972656 634.214844 394.023438 632.296875 C 380.5625 628.582031 367.246094 623.878906 355.925781 619.425781 C 358.503906 585.636719 356.277344 549.820312 360.558594 517.464844 C 381.726562 522.898438 403.492188 527.730469 425.941406 531.882812 Z M 356.957031 516.433594 C 355.050781 550.574219 353.820312 585.390625 352.324219 619.941406 C 353.710938 620.609375 354.78125 621.597656 354.894531 623.542969 C 361.1875 625.894531 369.277344 629.457031 378.0625 631.785156 C 386.683594 634.066406 395.851562 637.222656 403.804688 637.960938 C 408.585938 638.40625 414.582031 639.019531 418.734375 637.445312 C 425.949219 634.714844 424.902344 618.460938 425.425781 608.609375 C 426.828125 582.257812 429.640625 557.683594 428.515625 532.398438 C 433.023438 533.554688 439.402344 532.835938 443.445312 534.457031 C 441.011719 571.121094 439.207031 615.023438 441.386719 651.351562 C 430.644531 649.226562 420.714844 647.648438 409.464844 645.6875 C 402.484375 644.46875 395.359375 642.355469 388.359375 641.054688 C 373.9375 638.371094 359.121094 636.957031 348.203125 629.722656 C 342.121094 608.867188 343.382812 581.640625 343.570312 556.085938 C 343.671875 542.167969 343.925781 527.992188 345.113281 514.886719 C 345.144531 514.574219 345.191406 514.277344 345.628906 514.375 C 349.117188 515.347656 352.824219 516.105469 356.957031 516.433594 Z M 578.839844 441.25 C 578.042969 451.632812 573 473.722656 562.882812 473.179688 C 560.003906 473.023438 555.378906 468.433594 554.128906 464.9375 C 549.671875 452.445312 553.5625 435.730469 556.703125 424.769531 C 559.582031 414.746094 561.378906 405.542969 571.632812 406.234375 C 578.449219 413.316406 580.011719 426.054688 578.839844 441.25 Z M 526.332031 412.925781 C 530.070312 404.269531 538.003906 392.816406 544.347656 392.84375 C 551.273438 392.875 557.140625 399.894531 563.398438 402.113281 C 561.542969 402.941406 559.121094 404.265625 557.734375 406.234375 C 550.574219 416.378906 543.382812 450.84375 549.496094 468.027344 C 550.59375 471.109375 555.746094 474.214844 554.644531 475.753906 C 547.53125 477.214844 541.191406 479.457031 533.539062 480.386719 C 515.074219 468.378906 517.351562 433.703125 526.332031 412.925781 Z M 266.347656 417.5625 C 253.105469 408.960938 264.285156 376.605469 265.835938 360.917969 C 267.945312 359.429688 269.964844 357.839844 272.523438 356.796875 C 268.5 375.085938 266.683594 395.585938 266.347656 417.5625 Z M 553.613281 340.316406 C 566.136719 341.824219 566.503906 350.375 565.972656 362.976562 C 565.515625 373.828125 565.777344 385.324219 564.941406 396.449219 C 557.234375 394.554688 551.59375 386.871094 543.320312 387.179688 C 535.050781 387.488281 525.597656 400.636719 521.183594 410.867188 C 511.867188 432.457031 510.71875 462.804688 523.242188 478.839844 C 531.117188 488.925781 540.925781 485.238281 554.128906 481.417969 C 554.003906 488.84375 552.859375 495.25 552.070312 502.015625 C 528.5625 516.777344 498.765625 525.253906 462.492188 527.246094 C 457.8125 494.597656 459.648438 454.953125 463.523438 421.167969 C 466.679688 393.644531 470.132812 367.355469 479.996094 347.527344 C 501.71875 345.835938 529.851562 337.464844 553.613281 340.316406 Z M 317.3125 302.214844 C 343.652344 299.089844 370.738281 299.410156 397.625 301.695312 C 390.234375 320.542969 416.675781 325.738281 437.265625 324.355469 C 443.804688 323.914062 455.46875 323.3125 456.828125 318.691406 C 458.1875 314.078125 452.933594 309.082031 453.742188 306.847656 C 491.808594 312.023438 525.058594 322.023438 554.644531 335.683594 C 536.03125 333.109375 522.1875 336.5625 503.679688 338.261719 C 495.597656 339 481.1875 339.617188 476.394531 343.410156 C 470.511719 348.058594 466.660156 368.21875 464.550781 377.394531 C 461.433594 390.96875 459.761719 404.265625 458.375 417.5625 C 455.175781 448.179688 452.238281 477.867188 454.253906 505.617188 C 454.851562 513.8125 458.753906 521.574219 457.34375 529.824219 C 423.757812 528.675781 394.519531 521.117188 365.707031 513.859375 C 336.628906 506.53125 307.714844 501.355469 280.25 491.199219 C 272.484375 465.089844 270.0625 434.246094 272.011719 403.660156 C 274.148438 370.109375 281.070312 339.15625 290.542969 315.601562 C 289.605469 312.246094 284.84375 312.71875 284.882812 308.390625 C 292.976562 302.703125 305.222656 303.648438 317.3125 302.214844 Z M 438.8125 301.695312 C 432.011719 308.742188 441.34375 312.277344 443.445312 304.273438 C 447.242188 307.855469 451.339844 311.136719 452.710938 317.144531 C 435.28125 319.1875 406.621094 322.15625 400.714844 307.878906 C 404.757812 295.660156 428.324219 293.261719 438.8125 301.695312 Z M 486.175781 234.753906 C 479.757812 233.636719 479.511719 215.050781 490.292969 218.277344 C 498.957031 220.867188 494.203125 236.148438 486.175781 234.753906 Z M 384.242188 200.253906 C 386.507812 202.300781 386.046875 208.265625 384.753906 211.066406 C 371.800781 214.785156 372.683594 195.597656 384.242188 200.253906 Z M 405.863281 292.425781 C 404.84375 294.5 402.175781 294.921875 401.230469 297.0625 C 390.976562 294.0625 374.4375 294.605469 360.042969 293.972656 C 341.972656 293.175781 319.765625 294.324219 298.78125 297.0625 C 290.910156 298.089844 278.792969 300.742188 278.703125 308.90625 C 278.65625 313.34375 281.285156 314.074219 282.824219 317.144531 C 279.03125 327.769531 276.847656 340.007812 272.523438 350.101562 C 269.304688 352.222656 262.945312 353.476562 260.6875 357.3125 C 259.023438 360.132812 257.960938 368.164062 256.566406 375.335938 C 254.765625 384.609375 251.390625 402.5625 254.507812 412.925781 C 256.367188 419.113281 262.855469 422.320312 264.800781 425.800781 C 264.480469 446.050781 266.917969 467.796875 272.523438 484.507812 C 273.929688 488.683594 275.316406 495.375 277.671875 497.378906 C 280.308594 499.621094 287.832031 501.445312 292.085938 502.527344 C 306.960938 506.316406 322.082031 511.894531 338.421875 514.375 C 338.277344 516.117188 337.605469 517.332031 337.910156 519.523438 C 315.878906 518.5 289.753906 520.722656 273.554688 528.792969 C 268.664062 527.332031 263.894531 518.894531 257.082031 516.433594 C 252.472656 514.769531 244.128906 512.957031 240.09375 514.886719 C 233.40625 518.082031 238.484375 534.308594 238.035156 542.179688 C 239.640625 545.550781 245.5 544.667969 247.816406 547.328125 C 244.609375 548.074219 240.378906 547.792969 239.0625 550.421875 C 238.777344 557.914062 239.863281 564.039062 240.605469 570.503906 C 251.023438 581.882812 273.964844 573.355469 275.101562 559.691406 C 292.683594 564.316406 319.445312 568.414062 336.363281 560.71875 C 340.453125 590.300781 328.226562 634.003906 355.410156 641.054688 C 357.332031 652.34375 353.742188 674.328125 363.132812 678.128906 C 366.507812 679.496094 376.007812 680.4375 380.636719 678.128906 C 386.816406 675.042969 385.046875 656.515625 386.300781 647.746094 C 399.875 650.648438 413.304688 653.691406 428 655.472656 C 429.304688 662.007812 429.382812 668.664062 431.089844 676.070312 C 432.285156 681.261719 434.4375 690.429688 438.296875 692.03125 C 442.464844 693.765625 450.359375 692.710938 453.226562 691.003906 C 459.390625 687.328125 460.722656 666.515625 461.464844 654.957031 C 468.019531 651.347656 479.136719 654.441406 482.054688 647.746094 C 483.34375 644.796875 483.183594 638.03125 483.601562 632.8125 C 484.515625 621.402344 484.625 609.335938 484.628906 597.796875 C 496.972656 603.300781 503.738281 614.386719 518.609375 617.363281 C 520.25 625.632812 521.804688 633.523438 527.875 637.445312 C 530.214844 638.960938 535.296875 641.117188 538.6875 640.539062 C 541.515625 640.050781 544.972656 635.082031 546.921875 632.8125 C 549.042969 630.34375 553.117188 626.171875 552.585938 622.515625 C 551.929688 617.976562 547.074219 619.125 544.347656 615.820312 C 547.734375 610.875 550.660156 616.5625 555.675781 615.304688 C 559.25 614.410156 568.003906 599.164062 567.515625 595.21875 C 566.625 588 551.027344 584.890625 539.714844 585.953125 C 532.773438 577.789062 522.257812 570.992188 513.972656 563.296875 C 503.890625 553.921875 495.71875 542.539062 485.144531 532.910156 C 503.4375 529.703125 526.101562 522.878906 542.804688 514.886719 C 547.835938 512.480469 555.507812 509.726562 557.734375 505.105469 C 560.941406 498.449219 558.820312 490.523438 560.308594 481.417969 C 591.222656 477.925781 594.71875 411.324219 570.605469 397.480469 C 570.542969 383 574.617188 366.617188 573.179688 352.679688 C 572.1875 343.078125 564.324219 339.816406 561.851562 332.59375 C 529.601562 316.441406 491.546875 303.367188 448.078125 300.152344 C 453.019531 290.355469 460.972656 281.527344 467.125 271.316406 C 473.222656 261.199219 478.867188 250.652344 485.144531 240.933594 C 501.160156 243.128906 505.6875 218.644531 493.382812 213.125 C 484.683594 212.585938 479.125 215.617188 476.90625 222.394531 C 475.355469 227.128906 478.210938 232.453125 477.421875 236.8125 C 476.71875 240.714844 471.558594 246.984375 468.671875 251.746094 C 459.597656 266.703125 450.46875 281.664062 440.871094 294.488281 C 434.195312 290.820312 423.339844 288.734375 413.070312 290.367188 C 408.65625 270.480469 403.0625 251.65625 395.566406 233.722656 C 393.25 228.171875 389.679688 219.839844 389.902344 214.671875 C 390.078125 210.660156 393.648438 206.226562 391.960938 201.28125 C 389.152344 190.5625 371.230469 191.480469 368.796875 201.796875 C 366.15625 212.984375 376.03125 216.089844 382.695312 220.335938 C 390.191406 244.597656 399.667969 266.871094 405.863281 292.425781 " fill-opacity="1" fill-rule="evenodd"/></g><path fill="#fff18d" d="M 384.753906 211.066406 C 386.046875 208.265625 386.507812 202.300781 384.242188 200.25 C 372.683594 195.601562 371.800781 214.78125 384.753906 211.066406 " fill-opacity="1" fill-rule="evenodd"/><path fill="#fff18d" d="M 490.292969 218.273438 C 479.511719 215.046875 479.757812 233.636719 486.175781 234.753906 C 494.203125 236.148438 498.957031 220.863281 490.292969 218.273438 " fill-opacity="1" fill-rule="evenodd"/><path fill="#000000" d="M 252.964844 248.144531 C 256.15625 252.671875 259.152344 257.402344 261.71875 262.5625 C 256.039062 261.710938 252.105469 259.128906 245.753906 258.957031 C 247.296875 254.492188 248.886719 250.070312 252.964844 248.144531 Z M 249.875 241.964844 C 244.585938 246.972656 239.304688 251.988281 239.0625 262.046875 C 241.464844 265.363281 246.699219 264.980469 251.417969 266.164062 C 256.652344 267.476562 269.117188 274.441406 270.980469 268.226562 C 271.941406 265.03125 266.785156 259.15625 264.289062 254.835938 C 260.394531 248.085938 258.804688 241.253906 249.875 241.964844 " fill-opacity="1" fill-rule="evenodd"/><path fill="#fff18d" d="M 245.753906 258.953125 C 252.105469 259.125 256.039062 261.710938 261.714844 262.558594 C 259.148438 257.398438 256.15625 252.671875 252.960938 248.140625 C 248.882812 250.070312 247.296875 254.492188 245.753906 258.953125 " fill-opacity="1" fill-rule="evenodd"/><path fill="#000000" d="M 563.910156 283.15625 C 561.171875 286.257812 557.144531 288.058594 553.101562 289.855469 C 555.320312 285.828125 560.460938 273.757812 563.910156 283.15625 Z M 547.4375 297.0625 C 553.425781 295.101562 570.03125 290.527344 568.546875 281.097656 C 567.921875 277.164062 563.3125 273.925781 560.308594 273.890625 C 555.613281 273.832031 552.820312 280.699219 549.496094 285.21875 C 547.03125 288.570312 542.664062 292.15625 547.4375 297.0625 " fill-opacity="1" fill-rule="evenodd"/><path fill="#fff18d" d="M 553.101562 289.855469 C 557.144531 288.058594 561.171875 286.257812 563.910156 283.15625 C 560.460938 273.757812 555.320312 285.828125 553.101562 289.855469 " fill-opacity="1" fill-rule="evenodd"/><path fill="#e4e8f4" d="M 400.714844 307.875 C 406.621094 322.15625 435.28125 319.1875 452.710938 317.148438 C 451.339844 311.136719 447.242188 307.851562 443.445312 304.269531 C 441.34375 312.277344 432.011719 308.742188 438.8125 301.695312 C 428.324219 293.261719 404.757812 295.660156 400.714844 307.875 " fill-opacity="1" fill-rule="evenodd"/><path fill="#dddddd" d="M 388.875 500.984375 C 389.589844 502.617188 389.589844 505.53125 388.875 507.164062 C 387.335938 508.605469 382.6875 508.605469 381.152344 507.164062 C 380.617188 505.808594 380.535156 504.003906 380.636719 502.015625 C 382.238281 499.636719 385.941406 499.78125 388.875 500.984375 Z M 326.066406 495.320312 C 318.257812 498.886719 313.984375 488.84375 319.371094 485.019531 C 325.398438 484.445312 327.636719 489.957031 326.066406 495.320312 Z M 434.691406 478.324219 C 419.480469 478.074219 401.75 477.660156 402.773438 462.875 C 415.210938 457.015625 449.539062 467.492188 434.691406 478.324219 Z M 340.996094 451.550781 C 346.632812 453.945312 358.117188 454.308594 357.984375 460.300781 C 350.15625 461.585938 336.90625 459.898438 332.757812 454.125 C 333.800781 452.746094 339.082031 450.734375 340.996094 451.550781 Z M 301.871094 444.855469 C 300.777344 457.949219 268.160156 444.421875 282.820312 434.039062 C 290.566406 435.421875 302.566406 436.507812 301.871094 444.855469 Z M 411.523438 390.785156 C 423.886719 401.613281 430.203125 431.375 415.644531 444.339844 C 410.34375 449.058594 404.125 450.269531 396.078125 447.945312 C 393.105469 447.085938 389.472656 446.769531 387.328125 445.882812 C 373.054688 439.980469 364.539062 406.003906 377.03125 393.355469 C 381.585938 388.75 392.464844 386.160156 402.257812 387.179688 C 406.617188 387.632812 408.855469 388.445312 411.523438 390.785156 Z M 319.886719 375.335938 C 329.894531 385.128906 331.550781 414.132812 320.917969 424.769531 C 317.375 428.3125 307.738281 431.453125 301.871094 428.890625 C 300.699219 428.378906 299.859375 425.902344 298.265625 424.769531 C 296.1875 423.300781 293.570312 423.390625 292.085938 422.195312 C 283.898438 415.605469 278.566406 389.289062 285.394531 378.425781 C 288.71875 373.140625 300.242188 369.628906 309.589844 371.214844 C 313 371.792969 317.445312 372.945312 319.886719 375.335938 Z M 452.710938 358.339844 C 453.375 362.710938 453.285156 369.121094 450.136719 371.214844 C 448.980469 367.976562 450.101562 363.542969 451.167969 360.914062 C 448.363281 358.742188 441.953125 360.179688 440.871094 356.28125 C 443.617188 353.019531 450.035156 356.691406 452.710938 358.339844 Z M 469.183594 333.625 C 473.160156 334.074219 478.667969 331.6875 480.511719 334.652344 C 475.980469 337.742188 463.996094 337.882812 462.492188 332.078125 C 464.882812 331.554688 466.351562 333.304688 469.183594 333.625 Z M 309.589844 329.503906 C 307.835938 330.441406 307.117188 329.433594 304.957031 329.503906 C 302.6875 332.726562 305.140625 340.671875 300.324219 341.347656 C 298.835938 335.679688 300.503906 328.867188 303.414062 325.898438 C 306.878906 325.695312 309.003906 326.828125 309.589844 329.503906 Z M 350.777344 317.144531 C 362.828125 319.515625 375.117188 322.839844 386.8125 324.867188 C 411.664062 329.175781 436.257812 333.398438 457.34375 341.863281 C 451.175781 342.527344 445.097656 340.332031 438.808594 339.289062 C 399.3125 332.710938 363.21875 324.234375 324.523438 318.175781 C 319.382812 317.371094 310.605469 317.4375 309.589844 310.449219 C 322.273438 311.570312 336.636719 314.359375 350.777344 317.144531 Z M 284.882812 308.390625 C 284.84375 312.71875 289.605469 312.246094 290.542969 315.601562 C 281.070312 339.15625 274.148438 370.109375 272.011719 403.660156 C 270.0625 434.246094 272.484375 465.085938 280.246094 491.199219 C 307.714844 501.351562 336.625 506.53125 365.707031 513.859375 C 394.519531 521.117188 423.753906 528.671875 457.34375 529.820312 C 458.75 521.574219 454.851562 513.8125 454.253906 505.617188 C 452.238281 477.867188 455.175781 448.179688 458.375 417.5625 C 459.761719 404.265625 461.433594 390.96875 464.550781 377.394531 C 466.660156 368.21875 470.511719 348.058594 476.394531 343.40625 C 481.1875 339.617188 495.597656 338.996094 503.675781 338.257812 C 522.1875 336.5625 536.03125 333.109375 554.644531 335.683594 C 525.058594 322.019531 491.808594 312.023438 453.742188 306.847656 C 452.933594 309.082031 458.1875 314.074219 456.828125 318.691406 C 455.46875 323.3125 443.804688 323.917969 437.265625 324.355469 C 416.675781 325.734375 390.234375 320.542969 397.625 301.695312 C 370.734375 299.410156 343.652344 299.085938 317.3125 302.210938 C 305.222656 303.644531 292.976562 302.703125 284.882812 308.390625 " fill-opacity="1" fill-rule="evenodd"/><path fill="#000000" d="M 309.59375 310.453125 C 310.605469 317.441406 319.386719 317.371094 324.523438 318.175781 C 363.21875 324.238281 399.3125 332.714844 438.8125 339.289062 C 445.097656 340.335938 451.175781 342.53125 457.34375 341.863281 C 436.257812 333.398438 411.664062 329.175781 386.816406 324.871094 C 375.117188 322.84375 362.828125 319.519531 350.777344 317.148438 C 336.636719 314.363281 322.277344 311.574219 309.59375 310.453125 " fill-opacity="1" fill-rule="evenodd"/><g clip-path="url(#id2)"><path fill="#000000" d="M 593.257812 326.414062 C 590.574219 324.289062 586.671875 323.390625 583.988281 321.265625 C 586.480469 319.980469 589.085938 318.808594 592.226562 318.175781 C 591.539062 321.625 594.28125 324.34375 593.257812 326.414062 Z M 598.40625 333.109375 C 598.871094 332.203125 599.554688 331.515625 600.464844 331.050781 C 598.773438 324.84375 599.054688 316.667969 595.316406 312.511719 C 586.863281 312.125 584.359375 317.6875 576.265625 317.660156 C 569.058594 322.980469 578.5 326.28125 584.503906 328.988281 C 589.714844 331.34375 594.070312 333.632812 598.40625 333.109375 " fill-opacity="1" fill-rule="evenodd"/></g><path fill="#fff18d" d="M 592.226562 318.175781 C 589.085938 318.808594 586.480469 319.976562 583.988281 321.265625 C 586.671875 323.390625 590.574219 324.289062 593.257812 326.414062 C 594.28125 324.34375 591.539062 321.621094 592.226562 318.175781 " fill-opacity="1" fill-rule="evenodd"/><g clip-path="url(#id3)"><path fill="#000000" d="M 226.703125 333.625 C 224.8125 337.738281 220.078125 339.011719 216.410156 341.347656 C 216.109375 337.183594 217.035156 331.796875 215.894531 328.472656 C 219.835938 329.851562 223.285156 331.722656 226.703125 333.625 Z M 209.714844 322.808594 C 211.917969 330.097656 206.785156 347.476562 213.320312 349.070312 C 217.203125 350.015625 222.761719 345.050781 225.160156 343.40625 C 227.789062 341.609375 233.589844 337.347656 233.914062 334.652344 C 234.722656 327.9375 220.660156 322.898438 215.378906 320.75 C 213.476562 319.972656 211.121094 321.515625 209.714844 322.808594 " fill-opacity="1" fill-rule="evenodd"/></g><path fill="#8e8664" d="M 303.414062 325.898438 C 300.503906 328.867188 298.835938 335.679688 300.328125 341.351562 C 305.140625 340.675781 302.6875 332.726562 304.960938 329.503906 C 307.121094 329.433594 307.835938 330.441406 309.59375 329.503906 C 309.007812 326.828125 306.878906 325.695312 303.414062 325.898438 " fill-opacity="1" fill-rule="evenodd"/><path fill="#fff18d" d="M 215.894531 328.472656 C 217.035156 331.792969 216.109375 337.183594 216.410156 341.347656 C 220.078125 339.011719 224.8125 337.738281 226.707031 333.625 C 223.285156 331.722656 219.839844 329.851562 215.894531 328.472656 " fill-opacity="1" fill-rule="evenodd"/><path fill="#8e8664" d="M 462.492188 332.078125 C 463.996094 337.886719 475.980469 337.742188 480.511719 334.652344 C 478.667969 331.6875 473.160156 334.074219 469.183594 333.625 C 466.351562 333.300781 464.882812 331.554688 462.492188 332.078125 " fill-opacity="1" fill-rule="evenodd"/><path fill="#c1bfb6" d="M 475.878906 512.3125 C 478.289062 511.839844 481.457031 509.847656 483.601562 510.769531 C 483.578125 511.476562 483.84375 511.898438 484.117188 512.3125 C 481.792969 514.453125 478.234375 515.355469 473.816406 515.402344 C 471.558594 512.699219 470.695312 506.382812 471.246094 502.527344 C 476.1875 502.390625 474.296875 509.085938 475.878906 512.3125 Z M 500.074219 352.675781 C 497.203125 355.972656 493.101562 353.957031 490.292969 356.796875 C 486.097656 361.035156 489.820312 369.953125 484.117188 373.273438 C 483.105469 360.410156 486.636719 349.378906 500.074219 352.675781 Z M 479.996094 347.527344 C 470.132812 367.355469 466.679688 393.644531 463.523438 421.164062 C 459.648438 454.953125 457.8125 494.597656 462.492188 527.246094 C 498.765625 525.25 528.5625 516.777344 552.070312 502.015625 C 552.859375 495.246094 554.003906 488.839844 554.128906 481.417969 C 540.925781 485.238281 531.117188 488.925781 523.242188 478.839844 C 510.71875 462.804688 511.867188 432.457031 521.183594 410.867188 C 525.59375 400.636719 535.050781 387.484375 543.320312 387.175781 C 551.59375 386.871094 557.234375 394.554688 564.941406 396.449219 C 565.777344 385.320312 565.511719 373.828125 565.972656 362.976562 C 566.5 350.375 566.136719 341.824219 553.613281 340.316406 C 529.851562 337.460938 501.71875 345.835938 479.996094 347.527344 " fill-opacity="1" fill-rule="evenodd"/><path fill="#8e8664" d="M 484.117188 373.277344 C 489.820312 369.953125 486.101562 361.035156 490.292969 356.796875 C 493.101562 353.957031 497.203125 355.972656 500.074219 352.679688 C 486.636719 349.378906 483.105469 360.410156 484.117188 373.277344 " fill-opacity="1" fill-rule="evenodd"/><path fill="#8e8664" d="M 440.871094 356.28125 C 441.953125 360.179688 448.363281 358.742188 451.167969 360.917969 C 450.101562 363.542969 448.980469 367.980469 450.136719 371.214844 C 453.285156 369.125 453.375 362.714844 452.710938 358.339844 C 450.039062 356.691406 443.617188 353.019531 440.871094 356.28125 " fill-opacity="1" fill-rule="evenodd"/><path fill="#c6cde5" d="M 272.523438 356.796875 C 269.964844 357.835938 267.945312 359.425781 265.832031 360.914062 C 264.285156 376.605469 253.105469 408.957031 266.347656 417.5625 C 266.6875 395.582031 268.5 375.085938 272.523438 356.796875 " fill-opacity="1" fill-rule="evenodd"/><path fill="#000000" d="M 306.503906 381.515625 C 315.769531 390.722656 316.019531 414.890625 305.988281 419.105469 C 303.511719 420.148438 299.15625 420.1875 296.722656 419.105469 C 288.582031 415.496094 285.53125 391.207031 289.511719 381 C 296.011719 375.464844 301.457031 376.5 306.503906 381.515625 Z M 305.472656 424.257812 C 323.507812 419.425781 321.214844 382.496094 306.503906 375.847656 C 329.574219 376.054688 330.484375 427.460938 305.472656 424.257812 Z M 309.59375 371.214844 C 300.242188 369.628906 288.71875 373.140625 285.394531 378.425781 C 278.566406 389.289062 283.902344 415.605469 292.085938 422.195312 C 293.574219 423.390625 296.1875 423.296875 298.265625 424.769531 C 299.859375 425.902344 300.703125 428.382812 301.867188 428.890625 C 307.742188 431.453125 317.378906 428.3125 320.917969 424.769531 C 331.554688 414.132812 329.894531 385.128906 319.886719 375.335938 C 317.449219 372.945312 313 371.792969 309.59375 371.214844 " fill-opacity="1" fill-rule="evenodd"/><path fill="#ffe000" d="M 306.503906 375.851562 C 321.214844 382.496094 323.507812 419.425781 305.472656 424.253906 C 330.484375 427.460938 329.578125 376.054688 306.503906 375.851562 " fill-opacity="1" fill-rule="evenodd"/><path fill="#fff18d" d="M 289.515625 381 C 285.535156 391.210938 288.585938 415.496094 296.722656 419.105469 C 299.160156 420.1875 303.511719 420.148438 305.988281 419.105469 C 316.023438 414.890625 315.773438 390.722656 306.503906 381.515625 C 301.457031 376.5 296.011719 375.464844 289.515625 381 " fill-opacity="1" fill-rule="evenodd"/><path fill="#000000" d="M 402.257812 403.144531 C 406.25 409.734375 409.867188 425.367188 406.894531 433.011719 C 405.519531 436.542969 399.445312 441.191406 395.566406 441.765625 C 373.261719 445.070312 369.195312 394.097656 389.386719 392.84375 C 389.855469 392.816406 389.824219 393.347656 389.902344 393.359375 C 393.898438 393.988281 400.046875 399.488281 402.257812 403.144531 Z M 404.832031 391.816406 C 414.289062 395.105469 423.417969 417.632812 418.734375 431.46875 C 416.296875 438.664062 410.339844 444.34375 402.257812 444.855469 C 404.128906 441.640625 409.109375 439.65625 411.011719 435.585938 C 413.574219 430.105469 412.992188 422.429688 412.042969 416.019531 C 411.128906 409.835938 407.410156 401.335938 403.804688 397.480469 C 401.386719 394.894531 397.460938 394.421875 397.625 391.300781 C 399.628906 391.332031 402.777344 391.101562 404.832031 391.816406 Z M 402.257812 387.179688 C 392.464844 386.160156 381.585938 388.75 377.035156 393.359375 C 364.539062 406.007812 373.054688 439.980469 387.332031 445.886719 C 389.476562 446.773438 393.105469 447.085938 396.082031 447.945312 C 404.125 450.269531 410.34375 449.058594 415.644531 444.339844 C 430.207031 431.378906 423.886719 401.617188 411.527344 390.785156 C 408.859375 388.445312 406.617188 387.632812 402.257812 387.179688 " fill-opacity="1" fill-rule="evenodd"/><path fill="#ffe000" d="M 397.625 391.300781 C 397.457031 394.421875 401.386719 394.890625 403.800781 397.480469 C 407.410156 401.332031 411.125 409.835938 412.039062 416.015625 C 412.988281 422.425781 413.574219 430.105469 411.011719 435.585938 C 409.105469 439.65625 404.125 441.640625 402.257812 444.855469 C 410.339844 444.34375 416.296875 438.660156 418.734375 431.464844 C 423.417969 417.632812 414.285156 395.101562 404.832031 391.816406 C 402.777344 391.097656 399.625 391.328125 397.625 391.300781 " fill-opacity="1" fill-rule="evenodd"/><path fill="#c6cde5" d="M 546.40625 407.261719 C 540.617188 415.375 537.621094 426.28125 533.023438 435.582031 C 533.949219 422.09375 537.613281 411.34375 545.894531 405.203125 C 546.054688 405.898438 546.625 406.1875 546.40625 407.261719 Z M 533.539062 480.386719 C 541.191406 479.457031 547.53125 477.214844 554.644531 475.753906 C 555.746094 474.214844 550.59375 471.105469 549.496094 468.027344 C 543.382812 450.84375 550.574219 416.378906 557.734375 406.234375 C 559.121094 404.265625 561.542969 402.941406 563.398438 402.113281 C 557.140625 399.890625 551.273438 392.875 544.347656 392.84375 C 538.003906 392.816406 530.070312 404.269531 526.332031 412.925781 C 517.351562 433.703125 515.074219 468.378906 533.539062 480.386719 " fill-opacity="1" fill-rule="evenodd"/><path fill="#fff18d" d="M 389.902344 393.359375 C 389.820312 393.347656 389.855469 392.816406 389.390625 392.84375 C 369.195312 394.097656 373.261719 445.070312 395.566406 441.765625 C 399.445312 441.191406 405.519531 436.542969 406.894531 433.011719 C 409.867188 425.367188 406.25 409.734375 402.261719 403.144531 C 400.046875 399.488281 393.898438 393.992188 389.902344 393.359375 " fill-opacity="1" fill-rule="evenodd"/><path fill="#8896ba" d="M 545.894531 405.203125 C 537.613281 411.339844 533.949219 422.089844 533.023438 435.582031 C 537.621094 426.28125 540.617188 415.375 546.40625 407.261719 C 546.625 406.1875 546.054688 405.898438 545.894531 405.203125 " fill-opacity="1" fill-rule="evenodd"/><path fill="#e4e8f4" d="M 571.632812 406.230469 C 561.378906 405.542969 559.582031 414.742188 556.703125 424.769531 C 553.558594 435.730469 549.671875 452.445312 554.128906 464.9375 C 555.378906 468.433594 560.003906 473.023438 562.882812 473.175781 C 573 473.71875 578.042969 451.632812 578.839844 441.246094 C 580.011719 426.054688 578.449219 413.316406 571.632812 406.230469 " fill-opacity="1" fill-rule="nonzero"/><path fill="#ff9999" d="M 297.75 445.371094 C 291.945312 448.035156 284.035156 444.960938 283.339844 439.191406 C 287.492188 435.109375 297.15625 439.464844 297.75 445.371094 Z M 282.820312 434.039062 C 268.160156 444.421875 300.777344 457.949219 301.871094 444.855469 C 302.566406 436.507812 290.566406 435.421875 282.820312 434.039062 " fill-opacity="1" fill-rule="evenodd"/><path fill="#ff9999" d="M 283.335938 439.191406 C 284.035156 444.957031 291.941406 448.03125 297.75 445.371094 C 297.15625 439.464844 287.488281 435.105469 283.335938 439.191406 " fill-opacity="1" fill-rule="evenodd"/><path fill="#000000" d="M 332.757812 454.125 C 336.90625 459.898438 350.15625 461.585938 357.984375 460.300781 C 358.117188 454.308594 346.632812 453.945312 340.996094 451.550781 C 339.082031 450.734375 333.800781 452.746094 332.757812 454.125 " fill-opacity="1" fill-rule="evenodd"/><path fill="#ff9999" d="M 434.179688 473.691406 C 424.75 474.972656 408.648438 474.226562 406.378906 464.9375 C 417.910156 465.257812 431.164062 466.5625 434.179688 473.691406 Z M 402.773438 462.878906 C 401.75 477.660156 419.480469 478.074219 434.691406 478.328125 C 449.539062 467.492188 415.210938 457.015625 402.773438 462.878906 " fill-opacity="1" fill-rule="evenodd"/><path fill="#ff9999" d="M 406.378906 464.9375 C 408.648438 474.226562 424.75 474.972656 434.179688 473.691406 C 431.164062 466.5625 417.910156 465.257812 406.378906 464.9375 " fill-opacity="1" fill-rule="evenodd"/><path fill="#000000" d="M 322.464844 492.230469 C 322.175781 490.972656 320.472656 491.132812 320.917969 489.140625 C 322.425781 488.875 323.648438 491.503906 322.464844 492.230469 Z M 319.375 485.023438 C 313.988281 488.847656 318.261719 498.886719 326.066406 495.320312 C 327.640625 489.960938 325.402344 484.445312 319.375 485.023438 " fill-opacity="1" fill-rule="evenodd"/><path fill="#fff18d" d="M 320.917969 489.140625 C 320.472656 491.132812 322.175781 490.972656 322.460938 492.230469 C 323.648438 491.503906 322.425781 488.875 320.917969 489.140625 " fill-opacity="1" fill-rule="evenodd"/><path fill="#000000" d="M 383.726562 504.074219 C 383.777344 503.082031 385.644531 504.871094 386.300781 503.558594 C 387.472656 505.597656 383.148438 505.839844 383.726562 504.074219 Z M 380.636719 502.015625 C 380.535156 504.003906 380.621094 505.808594 381.152344 507.164062 C 382.6875 508.609375 387.339844 508.609375 388.875 507.164062 C 389.589844 505.53125 389.589844 502.617188 388.875 500.984375 C 385.941406 499.785156 382.238281 499.636719 380.636719 502.015625 " fill-opacity="1" fill-rule="evenodd"/><path fill="#8e8664" d="M 471.246094 502.527344 C 470.695312 506.382812 471.5625 512.699219 473.820312 515.402344 C 478.234375 515.359375 481.792969 514.453125 484.117188 512.3125 C 483.84375 511.898438 483.578125 511.476562 483.601562 510.769531 C 481.457031 509.847656 478.292969 511.839844 475.878906 512.3125 C 474.300781 509.085938 476.1875 502.390625 471.246094 502.527344 " fill-opacity="1" fill-rule="evenodd"/><path fill="#fff18d" d="M 386.300781 503.558594 C 385.644531 504.871094 383.777344 503.082031 383.726562 504.074219 C 383.148438 505.839844 387.472656 505.597656 386.300781 503.558594 " fill-opacity="1" fill-rule="evenodd"/><path fill="#dddddd" d="M 345.628906 514.375 C 345.191406 514.277344 345.144531 514.574219 345.117188 514.890625 C 343.925781 527.988281 343.671875 542.167969 343.570312 556.085938 C 343.382812 581.640625 342.121094 608.867188 348.203125 629.722656 C 359.121094 636.957031 373.941406 638.371094 388.359375 641.054688 C 395.359375 642.355469 402.484375 644.46875 409.464844 645.6875 C 420.714844 647.648438 430.644531 649.226562 441.386719 651.351562 C 439.207031 615.023438 441.011719 571.121094 443.445312 534.457031 C 439.402344 532.835938 433.023438 533.554688 428.515625 532.398438 C 429.640625 557.683594 426.828125 582.257812 425.425781 608.609375 C 424.902344 618.460938 425.949219 634.714844 418.734375 637.445312 C 414.582031 639.019531 408.585938 638.40625 403.804688 637.964844 C 395.851562 637.222656 386.683594 634.066406 378.066406 631.785156 C 369.277344 629.457031 361.1875 625.894531 354.894531 623.542969 C 354.785156 621.597656 353.710938 620.609375 352.324219 619.941406 C 353.820312 585.390625 355.050781 550.574219 356.957031 516.433594 C 352.824219 516.105469 349.117188 515.347656 345.628906 514.375 " fill-opacity="1" fill-rule="evenodd"/><path fill="#c6cde5" d="M 377.03125 612.730469 C 376.144531 621.339844 358.972656 617.765625 364.160156 606.550781 C 369.484375 600.777344 377.703125 606.21875 377.03125 612.730469 Z M 376.003906 569.472656 C 376.726562 575.316406 371.242188 579.042969 365.191406 575.136719 C 359.1875 564.203125 374.78125 559.582031 376.003906 569.472656 Z M 360.558594 517.464844 C 356.277344 549.820312 358.503906 585.636719 355.925781 619.425781 C 367.242188 623.878906 380.5625 628.582031 394.023438 632.296875 C 400.96875 634.214844 410.890625 635.796875 419.246094 632.8125 C 422.367188 600.058594 424.71875 566.535156 425.941406 531.882812 C 403.492188 527.730469 381.722656 522.898438 360.558594 517.464844 " fill-opacity="1" fill-rule="evenodd"/><path fill="#e4e8f4" d="M 243.695312 521.066406 C 243.558594 527.214844 243.746094 533.035156 244.210938 538.578125 C 254.625 537.578125 259.410156 555.5 245.753906 554.539062 C 245.871094 559.40625 246.113281 564.136719 247.300781 567.929688 C 257.851562 571.859375 266.082031 565.285156 268.921875 558.144531 C 267.355469 550.636719 270.84375 541.976562 268.921875 534.972656 C 267.425781 529.523438 254.1875 520.386719 243.695312 521.066406 " fill-opacity="1" fill-rule="evenodd"/><path fill="#8896ba" d="M 338.9375 525.703125 C 332.207031 525.835938 324.820312 525.3125 318.859375 526.21875 C 321.382812 531.335938 326.921875 547.53125 316.800781 546.300781 C 315.824219 544.207031 317.632812 543.414062 317.828125 541.152344 C 318.261719 536.183594 315.625 530.933594 314.742188 526.730469 C 306.324219 527.242188 298.679688 528.519531 291.574219 530.335938 C 292.042969 535.960938 296.871094 544.003906 293.117188 548.875 C 288.378906 545.890625 289.390625 537.15625 287.972656 530.851562 C 281.699219 531.613281 277.8125 534.769531 273.039062 537.03125 C 272.621094 542.542969 274.304688 547.132812 273.039062 551.964844 C 285.863281 555.136719 303.335938 559.460938 319.371094 558.144531 C 326.027344 557.597656 331.515625 554.132812 337.394531 555.054688 C 338.214844 545.578125 338.445312 535.511719 338.9375 525.703125 " fill-opacity="1" fill-rule="evenodd"/><path fill="#8896ba" d="M 521.695312 611.699219 C 525.738281 605.207031 534.667969 598.222656 533.023438 589.042969 C 531.875 582.644531 519.445312 577.632812 515.003906 573.59375 C 512.773438 580.460938 510.773438 587.558594 504.707031 590.585938 C 502.558594 583.214844 510.632812 577.34375 512.429688 570.503906 C 506.859375 564.917969 501.007812 559.613281 495.957031 553.507812 C 493.835938 557.347656 491.453125 561.515625 489.261719 565.871094 C 487.292969 569.789062 486.472656 575.941406 481.542969 577.195312 C 480.214844 567.074219 488.382812 557.632812 492.867188 549.90625 C 489.558594 542.570312 481.03125 540.460938 478.964844 531.882812 C 474.933594 531.039062 470.261719 534.316406 468.671875 536.515625 C 461.628906 546.253906 461.902344 568.386719 469.183594 576.683594 C 475.625 584.019531 485.398438 590.140625 494.925781 596.765625 C 504.328125 603.304688 510.207031 609.457031 521.695312 611.699219 " fill-opacity="1" fill-rule="evenodd"/><path fill="#c1bfb6" d="M 465.582031 533.425781 C 459.925781 532.066406 454.824219 535.707031 447.5625 534.457031 C 447.011719 573.574219 444.734375 613.660156 443.960938 650.835938 C 454.753906 649.105469 465.039062 646.859375 475.878906 645.171875 C 478.234375 628.472656 477.117188 608.304688 479.480469 591.617188 C 473.578125 585.300781 461.742188 579.492188 458.890625 568.957031 C 455.4375 556.214844 460.21875 541.667969 465.582031 533.425781 " fill-opacity="1" fill-rule="evenodd"/><path fill="#000000" d="M 371.886719 572.050781 C 370.351562 572.730469 369.273438 572.578125 368.28125 571.535156 C 367.886719 569.078125 369.007812 568.140625 370.339844 567.414062 C 371.152344 568.664062 372.261719 569.613281 371.886719 572.050781 Z M 365.195312 575.136719 C 371.246094 579.042969 376.726562 575.316406 376.003906 569.472656 C 374.78125 559.582031 359.1875 564.203125 365.195312 575.136719 " fill-opacity="1" fill-rule="evenodd"/><path fill="#fff18d" d="M 370.339844 567.414062 C 369.007812 568.140625 367.886719 569.078125 368.28125 571.535156 C 369.273438 572.578125 370.351562 572.730469 371.886719 572.046875 C 372.261719 569.613281 371.152344 568.664062 370.339844 567.414062 " fill-opacity="1" fill-rule="evenodd"/><path fill="#e4e8f4" d="M 537.65625 592.132812 C 535.726562 602.042969 530.625 608.785156 525.300781 615.304688 C 525.867188 624.523438 528.015625 632.15625 536.113281 633.84375 C 540.347656 631.898438 541.972656 627.347656 545.378906 624.574219 C 542.78125 621.140625 537.714844 621.917969 537.140625 617.363281 C 536.316406 610.828125 545.492188 605.015625 553.613281 608.609375 C 556.03125 604.332031 559.117188 600.722656 560.824219 595.734375 C 555.367188 592.550781 546.003906 590.730469 537.65625 592.132812 " fill-opacity="1" fill-rule="evenodd"/><path fill="#000000" d="M 371.886719 613.246094 C 369.304688 613.253906 367.480469 612.5 367.765625 609.640625 C 369.84375 606.257812 373.914062 609.929688 371.886719 613.246094 Z M 364.160156 606.550781 C 358.972656 617.765625 376.144531 621.339844 377.03125 612.730469 C 377.703125 606.21875 369.484375 600.777344 364.160156 606.550781 " fill-opacity="1" fill-rule="evenodd"/><path fill="#fff18d" d="M 367.765625 609.640625 C 367.480469 612.5 369.304688 613.253906 371.886719 613.246094 C 373.914062 609.929688 369.84375 606.257812 367.765625 609.640625 " fill-opacity="1" fill-rule="evenodd"/><path fill="#8896ba" d="M 362.617188 641.566406 C 360.191406 645.4375 362.730469 653.078125 362.617188 658.046875 C 364.882812 657.476562 370.835938 657.269531 370.855469 660.621094 C 370.714844 663.570312 365.644531 661.585938 363.132812 662.164062 C 363.039062 666.550781 363.816406 670.066406 365.707031 672.464844 C 369.65625 672.464844 373.601562 672.464844 377.546875 672.464844 C 378.566406 666.789062 379.464844 660.992188 380.121094 654.957031 C 376.800781 655.015625 373.277344 655.277344 371.886719 653.410156 C 371.878906 650.34375 378.175781 650.988281 379.609375 652.382812 C 380.488281 650.515625 380.691406 647.972656 380.636719 645.171875 C 374.996094 643.605469 368.4375 642.953125 362.617188 641.566406 " fill-opacity="1" fill-rule="evenodd"/><path fill="#8896ba" d="M 455.800781 654.441406 C 449.054688 655.246094 441.996094 655.738281 434.179688 655.472656 C 435.53125 660.300781 435.367188 666.636719 436.75 671.433594 C 439.984375 671.808594 444.894531 670.496094 444.988281 674.007812 C 444.832031 676.972656 439.617188 675.136719 437.78125 675.039062 C 437.730469 679.554688 439.878906 681.867188 440.355469 685.855469 C 443.621094 685.6875 447.65625 686.289062 450.136719 685.339844 C 452.269531 679.402344 453.539062 672.609375 454.769531 665.769531 C 450.753906 665.492188 445.125 666.835938 443.960938 663.710938 C 444.632812 659.496094 451.449219 662.160156 455.285156 662.164062 C 454.886719 659.019531 455.960938 657.347656 455.800781 654.441406 " fill-opacity="1" fill-rule="evenodd"/><path fill="#000000" d="M 475.726562 46.78125 C 465.015625 39.664062 450.757812 38.851562 438.699219 43.347656 C 426.644531 47.839844 416.773438 57.191406 410.246094 68.25 C 407.753906 72.46875 405.667969 77.082031 405.335938 81.96875 C 405 86.855469 406.667969 92.082031 410.535156 95.105469 C 414.40625 98.132812 420.601562 98.246094 423.960938 94.671875 C 427.023438 91.410156 427.023438 86.472656 427.914062 82.097656 C 429.863281 72.515625 437.214844 64.210938 446.519531 61.09375 C 454.617188 58.375 465.316406 60.613281 468.574219 68.488281 C 471.175781 74.773438 468.058594 82.105469 463.378906 87.050781 C 458.710938 92 452.617188 95.371094 447.480469 99.835938 C 435.878906 109.9375 429.691406 125.894531 431.472656 141.148438 C 432.222656 147.5625 434.8125 154.445312 440.601562 157.34375 C 449.589844 161.839844 458.886719 154.160156 458.753906 144.851562 C 458.710938 141.507812 457.113281 138.429688 456.992188 135.070312 C 456.796875 129.582031 459.082031 123.90625 461.878906 119.296875 C 466.074219 112.371094 472.027344 106.71875 477.449219 100.703125 C 482.878906 94.691406 487.960938 87.980469 489.808594 80.105469 C 492.75 67.613281 486.429688 53.894531 475.726562 46.78125 Z M 416.773438 93.699219 C 416.304688 93.796875 415.824219 93.628906 415.390625 93.441406 C 411.859375 91.894531 409.398438 88.402344 408.585938 84.648438 C 408.074219 82.289062 408.164062 79.835938 408.660156 77.488281 C 408.964844 76.082031 410.042969 72.40625 411.449219 71.652344 C 412.171875 71.261719 413.140625 71.402344 413.722656 71.980469 C 414.6875 72.941406 414.378906 74.539062 414.027344 75.855469 C 413.273438 78.683594 412.113281 81.613281 412.449219 84.527344 C 412.78125 87.441406 414.203125 90.351562 416.722656 91.859375 C 417.070312 92.070312 417.464844 92.289062 417.554688 92.679688 C 417.65625 93.136719 417.238281 93.597656 416.773438 93.699219 Z M 438.617188 137.046875 C 438.730469 139.851562 439.136719 142.777344 440.050781 145.4375 C 440.945312 148.039062 443.9375 152.367188 442.652344 153.71875 C 441.054688 155.40625 437.550781 150.179688 436.226562 147.425781 C 434.898438 144.667969 434.589844 141.539062 434.570312 138.488281 C 434.519531 131.324219 435.929688 124.160156 438.695312 117.546875 C 439.222656 116.285156 440.15625 114.824219 441.519531 114.980469 C 442.625 115.109375 443.3125 116.339844 443.269531 117.441406 C 443.226562 118.546875 442.664062 119.554688 442.160156 120.542969 C 439.582031 125.613281 438.382812 131.359375 438.617188 137.046875 Z M 438.617188 137.046875 " fill-opacity="1" fill-rule="nonzero"/><g clip-path="url(#id4)"><path fill="#000000" d="M 446.550781 168.847656 C 438.945312 170.46875 432.804688 183.113281 437.558594 189.570312 C 439.484375 192.183594 442.910156 193.34375 446.160156 193.328125 C 451.152344 193.300781 456.144531 190.609375 458.546875 186.257812 C 462.976562 178.226562 456.316406 166.757812 446.550781 168.847656 Z M 442.4375 190.351562 C 442.316406 190.601562 441.96875 190.628906 441.699219 190.570312 C 441.210938 190.476562 440.757812 190.246094 440.390625 189.925781 C 440.0625 189.632812 439.609375 189.183594 439.484375 188.753906 C 439.417969 188.535156 439.449219 188.277344 439.613281 188.117188 C 439.824219 187.917969 440.171875 187.949219 440.417969 188.09375 C 440.664062 188.238281 440.839844 188.476562 441.027344 188.699219 C 441.292969 189.003906 441.597656 189.277344 441.933594 189.503906 C 442.078125 189.601562 442.234375 189.703125 442.347656 189.84375 C 442.457031 189.988281 442.511719 190.1875 442.4375 190.351562 Z M 446.960938 174.898438 C 445.546875 176.207031 443.925781 177.277344 442.574219 178.652344 C 441.230469 180.023438 440.140625 181.808594 440.191406 183.734375 C 440.203125 184.25 440.226562 184.890625 439.765625 185.125 C 439.40625 185.300781 438.953125 185.074219 438.757812 184.722656 C 438.5625 184.375 438.5625 183.957031 438.578125 183.550781 C 438.746094 180.726562 439.910156 177.992188 441.753906 175.855469 C 442.550781 174.929688 446.496094 170.488281 447.789062 172.660156 C 448.230469 173.402344 447.601562 174.3125 446.960938 174.898438 Z M 446.960938 174.898438 " fill-opacity="1" fill-rule="nonzero"/></g></svg>