<svg xmlns="http://www.w3.org/2000/svg" xmlns:xlink="http://www.w3.org/1999/xlink" width="1080" zoomAndPan="magnify" viewBox="0 0 810 809.999993" height="1080" preserveAspectRatio="xMidYMid meet" version="1.0"><defs><clipPath id="id1"><path d="M 118 273.242188 L 639 273.242188 L 639 488 L 118 488 Z M 118 273.242188 " clip-rule="nonzero"/></clipPath></defs><path fill="#ff5757" d="M 144.675781 376.453125 C 168.976562 429.75 209.152344 474.328125 252.859375 513.285156 C 291.546875 547.785156 333.6875 578.667969 379.726562 602.484375 C 384.425781 604.894531 389.488281 607.34375 394.75 606.824219 C 399.167969 606.382812 403.144531 603.972656 406.882812 601.519531 C 492.371094 545.976562 562.230469 466.617188 606.421875 374.765625 C 625.542969 335.007812 640.167969 291.472656 636.550781 247.496094 C 634.222656 219.382812 623.253906 190.425781 600.4375 173.796875 C 582.640625 160.824219 559.378906 156.769531 537.523438 159.621094 C 501.488281 164.320312 469.59375 186.527344 445.890625 214.078125 C 422.230469 241.628906 405.636719 274.441406 389.328125 306.933594 C 372.09375 273.679688 353.855469 240.464844 328.382812 213.035156 C 302.914062 185.605469 269.167969 164.160156 231.929688 160.421875 C 186.65625 155.84375 141.019531 180.984375 128.765625 225.886719 C 126.917969 232.675781 125.472656 239.503906 124.386719 246.410156 C 117.597656 290.308594 126.316406 336.253906 144.675781 376.453125 Z M 376.632812 308.902344 C 371.890625 306.773438 371.8125 306.8125 370.003906 304.363281 C 366.871094 300.148438 363.976562 295.769531 360.765625 291.632812 C 337.785156 261.871094 315.207031 231.789062 289.777344 204.039062 C 288.089844 202.191406 285.722656 200.585938 285.601562 196.246094 C 287.410156 196.808594 288.574219 196.890625 289.375 197.492188 C 302.230469 207.089844 314.847656 217.050781 324.96875 229.621094 C 333.164062 239.824219 341.640625 249.902344 348.914062 260.789062 C 358.59375 275.328125 367.230469 290.546875 376.230469 305.527344 C 376.753906 306.332031 376.511719 307.578125 376.632812 308.902344 Z M 615.460938 226.25 C 615.378906 226.929688 614.496094 227.492188 613.691406 228.378906 C 612.648438 227.574219 611.605469 227.011719 611 226.167969 C 606.984375 220.785156 603.246094 215.203125 599.109375 209.941406 C 591.515625 200.34375 583.601562 190.988281 575.96875 181.429688 C 575.449219 180.785156 575.6875 179.300781 576.011719 178.375 C 576.171875 178.015625 577.777344 177.691406 578.300781 178.015625 C 582.035156 180.222656 585.894531 182.390625 589.347656 185.042969 C 602.082031 194.761719 609.796875 207.976562 615.097656 222.792969 C 615.460938 223.878906 615.621094 225.125 615.460938 226.25 Z M 619.960938 251.75 C 620.121094 252.59375 619.316406 254.160156 618.554688 254.523438 C 617.789062 254.882812 616.101562 254.484375 615.5 253.839844 C 612.847656 250.746094 610.558594 247.375 607.988281 244.199219 C 590.191406 221.910156 572.355469 199.660156 554.597656 177.332031 C 553.914062 176.488281 553.59375 175.363281 552.992188 174.199219 C 553.835938 173.476562 554.4375 172.511719 555.039062 172.511719 C 559.460938 172.59375 563.757812 173.316406 566.929688 176.808594 C 568.5 178.535156 569.90625 180.382812 571.351562 182.230469 C 585.613281 200.625 599.710938 219.140625 614.132812 237.414062 C 617.589844 241.75 618.957031 246.652344 619.960938 251.75 Z M 615.820312 276.894531 C 615.339844 276.730469 615.019531 276.089844 614.65625 275.648438 C 599.671875 257.414062 584.527344 239.339844 569.824219 220.867188 C 558.777344 206.972656 548.332031 192.59375 537.644531 178.414062 C 537.125 177.734375 536.761719 176.929688 536.398438 176.125 C 535.71875 174.601562 537.125 172.351562 538.808594 172.230469 C 542.585938 171.949219 545.679688 173.355469 548.050781 176.167969 C 549.535156 177.933594 550.78125 179.941406 552.226562 181.789062 C 573.320312 208.539062 594.371094 235.324219 615.5 262.03125 C 618.273438 265.566406 620.039062 269.460938 620.644531 273.679688 C 620.644531 274.160156 620.761719 274.523438 620.644531 274.765625 C 620.121094 275.726562 619.757812 277.132812 618.957031 277.496094 C 618.152344 277.816406 616.867188 277.253906 615.820312 276.894531 Z M 615.742188 299.585938 C 613.773438 299.984375 612.609375 298.460938 611.523438 297.015625 C 611 296.332031 610.558594 295.566406 609.996094 294.886719 C 598.867188 280.667969 587.78125 266.410156 576.613281 252.191406 C 558.617188 229.261719 541.542969 205.6875 524.710938 181.949219 C 523.867188 180.785156 523.183594 179.5 522.621094 178.175781 C 522.019531 176.648438 523.707031 174.640625 525.433594 174.558594 C 528.003906 174.441406 529.890625 175.5625 531.339844 177.613281 C 536.761719 185.164062 542.023438 192.875 547.648438 200.265625 C 558.816406 214.84375 570.023438 229.382812 581.472656 243.679688 C 592.242188 257.09375 603.289062 270.226562 614.375 283.359375 C 616.746094 286.171875 618.433594 289.023438 617.910156 293.078125 C 617.910156 293.679688 617.949219 294.5625 617.910156 295.40625 C 617.789062 297.054688 617.910156 299.140625 615.742188 299.585938 Z M 609.195312 313.398438 C 605.214844 309.144531 601.320312 304.804688 597.742188 300.226562 C 581.152344 278.859375 564.640625 257.414062 548.171875 235.925781 C 535.597656 219.542969 523.144531 203.074219 510.6875 186.609375 C 510.007812 185.726562 509.566406 184.640625 509.003906 183.675781 C 509.566406 182.753906 509.847656 181.871094 510.40625 181.308594 C 513.058594 178.9375 515.871094 179.058594 518.042969 181.589844 C 518.804688 182.472656 519.328125 183.515625 520.007812 184.480469 C 534.269531 203.957031 548.332031 223.597656 562.914062 242.835938 C 579.105469 264.160156 595.777344 285.085938 612.207031 306.210938 C 613.089844 307.335938 613.894531 308.539062 614.496094 309.867188 C 615.21875 311.433594 614.457031 314.082031 613.011719 314.324219 C 611.84375 314.523438 609.996094 314.203125 609.195312 313.398438 Z M 603.808594 330.910156 C 601.519531 328.261719 599.550781 325.367188 597.382812 322.636719 C 573.558594 292.878906 549.65625 263.199219 525.914062 233.355469 C 516.3125 221.269531 507.195312 208.859375 497.792969 196.609375 C 492.691406 189.941406 492.933594 188.9375 500.808594 185.523438 C 501.328125 185.285156 501.933594 185.324219 503.539062 185.121094 C 504.742188 186.488281 505.988281 187.691406 507.035156 189.058594 C 521.695312 208.980469 536.441406 228.820312 550.984375 248.820312 C 567.773438 271.914062 585.652344 294.121094 603.691406 316.210938 C 605.335938 318.21875 606.984375 320.269531 608.511719 322.4375 C 609.917969 324.445312 610.398438 326.8125 609.554688 329.101562 C 609.113281 330.269531 607.988281 331.511719 606.824219 331.996094 C 606.101562 332.316406 604.453125 331.632812 603.808594 330.910156 Z M 600.476562 349.546875 C 599.511719 348.863281 598.386719 348.421875 597.703125 347.578125 C 595.09375 344.445312 592.640625 341.191406 590.109375 338.019531 C 573.117188 316.894531 556.042969 295.890625 539.132812 274.683594 C 524.589844 256.449219 510.289062 238.054688 495.945312 219.660156 C 491.648438 214.160156 487.589844 208.457031 483.492188 202.792969 C 481.726562 200.382812 481.605469 198.335938 482.929688 196.367188 C 485.660156 192.273438 490 192.230469 492.691406 196.570312 C 500.363281 209.019531 509.164062 220.546875 518.320312 231.910156 C 542.265625 261.632812 566.046875 291.511719 589.910156 321.273438 C 594.089844 326.492188 598.46875 331.59375 602.566406 336.894531 C 605.898438 341.191406 605.820312 343.722656 602.804688 347.9375 C 602.363281 348.621094 601.441406 348.941406 600.476562 349.546875 Z M 584.769531 379.746094 C 584.164062 379.144531 583.601562 378.421875 583.082031 377.738281 C 577.539062 370.628906 571.992188 363.441406 566.410156 356.375 C 554.679688 341.511719 542.988281 326.574219 531.058594 311.875 C 522.058594 300.789062 512.65625 290.027344 503.5 279.0625 C 491.527344 264.765625 479.636719 250.386719 467.664062 236.046875 C 463.96875 231.628906 460.230469 227.210938 456.859375 223.195312 C 457.058594 222.152344 457.058594 221.789062 457.21875 221.589844 C 458.988281 219.339844 460.433594 216.570312 462.722656 215.003906 C 465.375 213.15625 467.863281 211.667969 469.230469 208.417969 C 470.355469 205.765625 472.804688 203.878906 476.863281 202.671875 C 478.269531 204.28125 479.675781 205.726562 480.839844 207.332031 C 497.390625 230.988281 515.308594 253.640625 533.347656 276.167969 C 551.546875 298.941406 570.105469 321.433594 588.464844 344.082031 C 591.035156 347.257812 593.6875 350.347656 596.257812 353.523438 C 598.789062 356.613281 598.828125 359.867188 596.699219 363.199219 C 595.171875 365.570312 592.683594 366.011719 590.875 363.921875 C 587.460938 359.949219 584.164062 355.851562 580.871094 351.792969 C 565.164062 332.277344 549.457031 312.71875 533.75 293.199219 C 515.992188 271.191406 498.234375 249.179688 480.480469 227.171875 C 477.746094 223.757812 475.175781 220.222656 472.40625 216.851562 C 471.761719 216.085938 470.597656 215.164062 469.191406 216.972656 C 469.792969 218.296875 470.273438 219.984375 471.238281 221.308594 C 474.976562 226.488281 478.792969 231.671875 482.769531 236.730469 C 497.03125 254.804688 511.25 272.917969 525.714844 290.828125 C 546.402344 316.453125 567.332031 341.875 588.144531 367.417969 C 588.867188 368.300781 589.628906 369.226562 590.191406 370.230469 C 591.878906 373.402344 591.316406 376.414062 589.429688 379.304688 C 588.464844 380.671875 586.011719 380.953125 584.769531 379.746094 Z M 575.929688 391.796875 C 570.304688 384.40625 564.722656 376.9375 558.976562 369.585938 C 548.050781 355.570312 537.445312 341.3125 525.996094 327.738281 C 500.324219 297.214844 474.210938 267.054688 448.261719 236.769531 C 446.734375 235.003906 446.371094 233.035156 447.578125 231.148438 C 449.105469 228.738281 450.710938 226.167969 454.769531 225.847656 C 457.660156 229.742188 460.632812 234 463.886719 238.015625 C 472.125 248.175781 480.558594 258.257812 488.835938 268.378906 C 506.191406 289.542969 523.664062 310.628906 540.898438 331.914062 C 554.839844 349.105469 568.5 366.453125 582.238281 383.804688 C 584.246094 386.332031 584.085938 389.226562 582.800781 392.078125 C 581.753906 394.40625 578.703125 394.96875 576.976562 393.203125 C 576.613281 392.71875 576.25 392.277344 575.929688 391.796875 Z M 570.304688 411.476562 C 568.335938 409.910156 566.53125 408.945312 565.363281 407.5 C 547.96875 385.933594 530.574219 364.367188 513.421875 342.636719 C 494.660156 318.820312 476.179688 294.765625 457.5 270.828125 C 450.871094 262.355469 444.082031 254 437.613281 245.886719 C 437.734375 244.804688 437.695312 244.160156 437.894531 243.640625 C 438.175781 242.835938 438.660156 242.074219 439.019531 241.269531 C 441.148438 237.09375 444.484375 237.011719 447.578125 241.109375 C 456.578125 252.957031 466.097656 264.402344 475.617188 275.808594 C 493.214844 296.8125 511.050781 317.617188 528.726562 338.621094 C 534.148438 345.085938 539.414062 351.714844 544.515625 358.460938 C 553.675781 370.550781 562.550781 382.839844 571.710938 394.929688 C 576.976562 401.875 577.136719 401.796875 572.316406 409.1875 C 571.992188 409.667969 571.550781 410.070312 570.304688 411.476562 Z M 558.09375 424.96875 C 557.449219 424.40625 556.847656 423.726562 556.324219 423.042969 C 538.691406 400.914062 520.8125 378.984375 503.457031 356.652344 C 479.113281 325.328125 454.367188 294.363281 428.695312 264.121094 C 427.972656 263.277344 427.410156 262.113281 427.289062 261.027344 C 427.007812 258.417969 431.46875 251.511719 433.71875 251.308594 C 437.050781 250.988281 437.777344 254.121094 439.382812 256.046875 C 441.230469 258.296875 443.078125 260.546875 444.886719 262.875 C 461.277344 283.761719 477.628906 304.644531 494.058594 325.527344 C 514.0625 350.992188 534.152344 376.414062 554.195312 401.835938 C 558.335938 407.058594 562.433594 412.320312 566.8125 417.859375 C 565.40625 420.3125 564.238281 422.601562 562.832031 424.730469 C 561.789062 426.175781 559.460938 426.214844 558.09375 424.96875 Z M 545.117188 440.472656 C 540.097656 434.449219 534.953125 428.464844 530.011719 422.359375 C 521.015625 411.273438 512.015625 400.230469 503.257812 388.984375 C 498.4375 382.800781 494.378906 375.972656 489.519531 369.828125 C 475.941406 352.71875 462.121094 335.808594 448.421875 318.78125 C 439.300781 307.414062 430.382812 295.890625 421.183594 284.644531 C 415.359375 277.496094 415.117188 277.054688 420.378906 269.824219 C 420.902344 269.101562 421.425781 268.417969 422.027344 267.816406 C 423.59375 266.25 425.84375 266.492188 427.25 268.378906 C 430.023438 272.113281 432.632812 275.96875 435.566406 279.625 C 446.492188 293.238281 457.621094 306.734375 468.46875 320.429688 C 483.089844 338.941406 497.433594 357.660156 512.09375 376.132812 C 523.144531 390.070312 534.429688 403.765625 545.640625 417.539062 C 548.773438 421.394531 551.90625 425.171875 554.917969 429.105469 C 557.128906 431.996094 557.050781 433.886719 554.960938 437.019531 C 553.515625 439.148438 551.90625 441.234375 550.582031 443.082031 C 547.730469 443.644531 546.441406 442.039062 545.117188 440.472656 Z M 534.953125 457.21875 C 527.804688 448.785156 520.492188 440.433594 513.542969 431.835938 C 499.964844 415.089844 486.265625 398.421875 473.128906 381.3125 C 452.558594 354.484375 431.667969 327.898438 409.734375 302.15625 C 406.121094 297.898438 405.636719 294.164062 408.367188 289.582031 C 409.976562 286.894531 411.058594 283.761719 415.039062 282.917969 C 416.203125 284.363281 417.289062 285.648438 418.292969 287.011719 C 426.085938 297.214844 433.757812 307.457031 441.632812 317.578125 C 458.144531 338.703125 474.894531 359.667969 491.367188 380.832031 C 497.472656 388.625 502.855469 397.015625 509.042969 404.726562 C 519.246094 417.460938 529.8125 429.910156 540.296875 442.398438 C 546.363281 449.589844 547.085938 448.183594 540.539062 456.816406 C 539.855469 457.703125 538.890625 458.34375 537.644531 459.46875 C 536.28125 458.304688 535.476562 457.863281 534.953125 457.21875 Z M 522.582031 469.390625 C 517.359375 463.125 512.136719 456.816406 506.992188 450.472656 C 491.324219 431.234375 475.820312 411.917969 460.070312 392.761719 C 440.988281 369.585938 421.625 346.574219 402.503906 323.398438 C 396.476562 316.089844 396.597656 315.96875 400.453125 307.132812 C 400.574219 306.855469 400.617188 306.574219 400.734375 306.292969 C 402.34375 302.835938 404.875 302.476562 407.484375 305.367188 C 408.449219 306.453125 409.292969 307.65625 410.21875 308.78125 C 426.488281 329.382812 442.714844 349.988281 458.988281 370.628906 C 478.109375 394.929688 497.191406 419.226562 516.355469 443.484375 C 520.53125 448.746094 524.832031 453.886719 529.289062 458.90625 C 534.269531 464.488281 534.429688 464.769531 529.609375 470.152344 C 528.886719 470.996094 527.84375 471.558594 526.277344 472.761719 C 524.667969 471.355469 523.503906 470.472656 522.582031 469.390625 Z M 513.824219 480.070312 C 502.132812 465.894531 490.480469 451.757812 478.992188 437.460938 C 470.957031 427.460938 463.445312 417.058594 455.371094 407.136719 C 434.800781 381.835938 413.992188 356.695312 393.34375 331.472656 C 392.421875 330.347656 391.65625 329.101562 391.054688 327.777344 C 390.210938 325.929688 391.132812 323.761719 393.0625 322.597656 C 394.589844 321.671875 395.957031 322.15625 397.480469 324.082031 C 408.53125 337.980469 419.496094 351.957031 430.703125 365.730469 C 441.914062 379.507812 453.441406 393.039062 464.730469 406.777344 C 480.960938 426.574219 497.109375 446.496094 513.300781 466.375 C 515.871094 469.550781 518.644531 472.519531 521.054688 475.816406 C 522.863281 478.304688 520.972656 482.242188 517.277344 482.761719 C 516.394531 482.039062 514.828125 481.316406 513.824219 480.070312 Z M 504.101562 492.441406 C 498.15625 484.890625 492.289062 477.261719 486.265625 469.75 C 470.675781 450.152344 455.089844 430.511719 439.382812 410.992188 C 429.339844 398.503906 419.253906 386.054688 408.890625 373.804688 C 396.476562 359.105469 383.382812 345.007812 371.769531 329.625 C 364.902344 320.546875 357.671875 311.792969 350.320312 303.117188 C 334.289062 284.203125 317.777344 265.726562 302.03125 246.609375 C 284.636719 225.484375 268.324219 203.4375 249.082031 183.878906 C 248.039062 182.792969 247.636719 181.066406 246.070312 177.8125 C 252.335938 180.0625 256.433594 181.507812 260.492188 182.996094 C 267.804688 185.683594 273.507812 190.222656 278.167969 196.648438 C 284.675781 205.605469 291.949219 214 298.859375 222.632812 C 319.425781 248.378906 339.953125 274.121094 360.523438 299.824219 C 371.089844 313 381.855469 326.011719 392.339844 339.304688 C 411.664062 363.804688 431.226562 388.0625 451.59375 411.675781 C 454.445312 414.96875 457.179688 418.421875 459.871094 421.835938 C 465.253906 428.703125 470.515625 435.691406 476.019531 442.519531 C 484.816406 453.402344 493.777344 464.128906 502.65625 474.972656 C 505.789062 478.785156 508.921875 482.640625 511.855469 486.617188 C 513.421875 488.785156 512.136719 492 509.285156 494.089844 C 507.757812 495.171875 505.828125 494.609375 504.101562 492.441406 Z M 493.375 503.445312 C 491.566406 501.558594 489.800781 499.589844 488.070312 497.621094 C 467.984375 474.53125 447.738281 451.597656 427.933594 428.261719 C 407.765625 404.488281 388.042969 380.308594 368.074219 356.375 C 359.316406 345.851562 350.238281 335.570312 341.601562 324.925781 C 323.242188 302.316406 305.085938 279.503906 286.804688 256.773438 C 268.726562 234.28125 250.609375 211.832031 232.570312 189.339844 C 228.957031 184.839844 225.542969 180.222656 220.960938 174.277344 C 230.84375 172.992188 237.351562 175.445312 242.496094 181.992188 C 246.070312 186.570312 249.886719 190.988281 253.664062 195.40625 C 261.175781 204.320312 268.847656 213.117188 276.238281 222.113281 C 292.347656 241.710938 308.21875 261.46875 324.367188 281.03125 C 334.007812 292.714844 344.171875 303.960938 353.855469 315.609375 C 369.320312 334.203125 384.507812 353.039062 399.890625 371.675781 C 405.074219 377.980469 410.78125 383.84375 415.882812 390.191406 C 432.152344 410.390625 448.179688 430.792969 464.371094 451.035156 C 476.582031 466.257812 488.914062 481.355469 501.207031 496.539062 C 503.296875 499.148438 502.574219 502.320312 499.441406 504.8125 C 497.554688 506.296875 495.785156 505.9375 493.375 503.445312 Z M 475.097656 513.6875 C 474.414062 513.164062 474.011719 512.320312 473.449219 511.640625 C 440.347656 470.511719 407.324219 429.347656 374.140625 388.300781 C 361.847656 373.121094 349.476562 357.980469 336.820312 343.121094 C 319.585938 322.917969 302.03125 303.039062 284.636719 282.996094 C 263.988281 259.222656 244.421875 234.5625 224.820312 209.902344 C 216.824219 199.863281 208.910156 189.78125 201.078125 179.621094 C 200.152344 178.414062 199.992188 176.648438 199.347656 174.761719 C 201.398438 174.359375 202.804688 174.117188 204.171875 173.835938 C 210.960938 172.59375 215.578125 175.203125 219.675781 180.867188 C 226.828125 190.785156 234.78125 200.144531 242.453125 209.703125 C 266.800781 239.902344 291.144531 270.105469 315.488281 300.265625 C 325.933594 313.199219 336.058594 326.371094 346.863281 339.023438 C 363.496094 358.542969 380.128906 378.101562 396.316406 397.980469 C 412.910156 418.304688 429.941406 438.261719 446.976562 458.222656 C 461.195312 474.851562 475.660156 491.238281 490.039062 507.742188 C 490.402344 508.183594 491.042969 508.625 491.085938 509.109375 C 491.207031 510.472656 491.648438 512.402344 490.964844 513.085938 C 488.3125 515.695312 486.664062 520.03125 482.648438 520.3125 C 478.632812 520.59375 477.789062 515.777344 475.097656 513.6875 Z M 466.5 529.351562 C 452.71875 513.488281 438.699219 497.863281 425.28125 481.71875 C 411.664062 465.371094 398.6875 448.503906 385.351562 431.917969 C 370.726562 413.765625 356.546875 395.210938 341.238281 377.617188 C 315.769531 348.339844 292.230469 317.496094 268.324219 287.011719 C 254.464844 269.34375 240.207031 251.992188 226.144531 234.523438 C 216.261719 222.273438 206.378906 210.023438 196.578125 197.695312 C 193.324219 193.597656 190.308594 189.300781 187.296875 185.003906 C 185.367188 182.230469 186.011719 179.820312 188.742188 178.414062 C 191.515625 176.96875 193.683594 177.25 195.855469 179.460938 C 196.65625 180.304688 197.378906 181.226562 198.105469 182.152344 C 208.148438 195.003906 218.070312 207.976562 228.195312 220.746094 C 242.292969 238.578125 256.234375 256.570312 270.816406 274 C 290.664062 297.695312 311.109375 320.871094 331.15625 344.40625 C 344.414062 359.949219 357.550781 375.53125 370.484375 391.3125 C 381.210938 404.40625 391.457031 417.859375 402.0625 430.992188 C 421.304688 454.808594 440.667969 478.503906 459.949219 502.28125 C 465.976562 509.710938 471.882812 517.222656 477.789062 524.570312 C 477.105469 528.023438 474.855469 529.953125 472.40625 531.4375 C 471.480469 532 469.714844 531.519531 468.425781 531.117188 C 467.582031 530.957031 467.0625 529.992188 466.5 529.351562 Z M 449.625 537.222656 C 423.796875 505.65625 397.925781 474.046875 372.253906 442.359375 C 354.296875 420.148438 336.539062 397.78125 318.703125 375.410156 C 304.160156 357.175781 289.617188 338.941406 275.234375 320.589844 C 259.046875 299.945312 243.015625 279.183594 226.949219 258.457031 C 210.15625 236.8125 193.445312 215.125 176.691406 193.4375 C 175.808594 192.3125 175.003906 191.027344 174.601562 189.660156 C 174.082031 187.773438 175.085938 186.289062 176.652344 185.285156 C 178.21875 184.28125 180.386719 184.398438 181.433594 185.726562 C 182.878906 187.574219 184.082031 189.539062 185.488281 191.386719 C 198.90625 209.378906 213.128906 226.730469 227.351562 244.082031 C 248.960938 270.46875 269.652344 297.574219 290.824219 324.324219 C 301.871094 338.261719 312.757812 352.316406 324.246094 365.851562 C 342.566406 387.378906 360.804688 408.945312 378.28125 431.195312 C 392.703125 449.507812 407.203125 467.742188 422.066406 485.695312 C 434.882812 501.195312 448.21875 516.21875 461.316406 531.480469 C 462.601562 532.964844 463.648438 534.652344 464.933594 536.378906 C 462.84375 539.671875 460.273438 541.921875 457.21875 543.890625 C 453.082031 542.722656 451.59375 539.632812 449.625 537.222656 Z M 441.148438 551.160156 C 438.617188 547.945312 436.167969 544.691406 433.878906 541.320312 C 423.996094 526.820312 413.027344 513.207031 401.136719 500.394531 C 380.890625 478.585938 362.128906 455.53125 343.410156 432.398438 C 327.660156 412.921875 312.113281 393.242188 296.527344 373.601562 C 285.640625 359.90625 274.792969 346.171875 264.109375 332.355469 C 258.5625 325.207031 253.503906 317.738281 248 310.546875 C 231.847656 289.503906 215.738281 268.417969 199.308594 247.613281 C 187.417969 232.515625 175.003906 217.816406 162.871094 202.914062 C 162.148438 202.03125 161.667969 200.988281 161.0625 200.023438 C 162.390625 195.886719 164.921875 193.515625 169.660156 192.714844 C 261.214844 312.71875 354.496094 431.316406 451.675781 547.984375 C 450.269531 549.753906 449.507812 551.039062 448.460938 551.960938 C 445.449219 554.453125 443.601562 554.289062 441.148438 551.160156 Z M 425.683594 559.632812 C 415.277344 546.660156 404.875 533.6875 394.628906 520.636719 C 372.453125 492.441406 350.480469 464.128906 328.222656 436.015625 C 309.421875 412.238281 290.339844 388.625 271.460938 364.886719 C 260.410156 350.992188 249.125 337.175781 238.558594 322.917969 C 219.273438 296.894531 199.511719 271.308594 178.179688 246.933594 C 169.339844 236.851562 160.863281 226.488281 152.347656 216.167969 C 151.34375 214.921875 150.339844 212.835938 150.699219 211.507812 C 151.664062 207.8125 153.632812 204.5625 158.132812 203.597656 C 158.976562 204.402344 159.898438 205.082031 160.582031 205.96875 C 169.660156 217.734375 178.660156 229.582031 187.78125 241.308594 C 206.136719 265.046875 224.617188 288.699219 242.9375 312.476562 C 255.550781 328.863281 267.84375 345.53125 280.5 361.914062 C 292.628906 377.578125 305.085938 393 317.417969 408.542969 C 331.71875 426.578125 345.898438 444.730469 360.441406 462.601562 C 368.71875 472.761719 377.4375 482.601562 386.195312 492.363281 C 398.527344 506.015625 410.578125 519.871094 421.746094 534.449219 C 426.527344 540.714844 431.308594 546.980469 436.046875 553.246094 C 437.050781 554.570312 437.976562 555.976562 438.980469 557.382812 C 437.09375 560.878906 434.882812 563.40625 431.828125 564.734375 C 428.496094 564.171875 427.289062 561.601562 425.683594 559.632812 Z M 414.835938 573.007812 C 408.929688 565.777344 402.945312 558.628906 397.28125 551.238281 C 389.125 540.597656 381.332031 529.671875 373.175781 519.027344 C 361.285156 503.527344 349.195312 488.226562 337.261719 472.761719 C 311.433594 439.308594 284.675781 406.574219 257.359375 374.324219 C 241.890625 356.09375 226.867188 337.496094 212.042969 318.78125 C 189.828125 290.667969 167.933594 262.273438 145.917969 234 C 142.425781 229.5 142.585938 224.160156 146.402344 219.664062 C 146.921875 219.058594 148.53125 219.101562 149.496094 219.300781 C 150.21875 219.460938 150.941406 220.304688 151.34375 220.988281 C 158.132812 231.953125 167.128906 241.148438 175.207031 251.109375 C 187.097656 265.847656 199.347656 280.304688 211.039062 295.207031 C 220.921875 307.816406 229.960938 321.070312 239.804688 333.722656 C 256.476562 355.089844 273.46875 376.214844 290.339844 397.457031 C 307.375 418.90625 324.367188 440.390625 341.402344 461.878906 C 352.449219 475.816406 363.496094 489.75 374.542969 503.648438 C 390.691406 523.96875 406.84375 544.25 422.992188 564.574219 C 423.875 565.65625 424.558594 566.902344 425.363281 568.105469 C 423.957031 571.601562 421.386719 573.328125 418.050781 575.417969 C 416.644531 574.371094 415.558594 573.851562 414.835938 573.007812 Z M 397.925781 574.332031 C 379.523438 555.132812 363.496094 534.007812 347.464844 512.84375 C 329.507812 489.148438 310.425781 466.335938 291.90625 443.042969 C 278.652344 426.375 265.554688 409.628906 252.417969 392.839844 C 238.917969 375.609375 225.664062 358.261719 212.003906 341.152344 C 189.464844 312.878906 166.769531 284.765625 144.03125 256.652344 C 141.136719 253.078125 139.050781 249.460938 139.492188 244.722656 C 139.734375 242.996094 139.851562 241.269531 140.214844 239.582031 C 140.496094 238.175781 142.824219 237.492188 143.75 238.578125 C 145.597656 240.828125 147.246094 243.238281 148.972656 245.527344 C 161.546875 261.992188 174.121094 278.417969 186.65625 294.886719 C 204.128906 317.859375 222.007812 340.507812 240.40625 362.757812 C 261.417969 388.140625 282.347656 413.605469 302.996094 439.265625 C 317.980469 457.902344 332.480469 476.898438 347.1875 495.734375 C 368.035156 522.363281 388.925781 548.949219 409.816406 575.578125 C 410.335938 576.257812 411.140625 577.023438 411.140625 577.746094 C 411.179688 579.070312 411.101562 580.839844 410.296875 581.679688 C 409.492188 582.523438 407.726562 582.847656 406.402344 582.726562 C 405.394531 582.644531 404.230469 581.800781 403.507812 580.957031 C 401.621094 578.828125 399.933594 576.421875 397.925781 574.332031 Z M 167.933594 385.128906 C 170.0625 386.375 171.148438 386.695312 171.789062 387.457031 C 195.25 414.847656 215.621094 444.648438 237.675781 473.125 C 238.074219 473.644531 237.957031 474.609375 238.15625 476.097656 C 236.589844 475.253906 235.382812 474.972656 234.703125 474.207031 C 228.152344 467.21875 221.285156 460.472656 215.21875 453.042969 C 198.625 432.800781 183.238281 411.675781 169.421875 389.425781 C 168.859375 388.582031 168.738281 387.5 167.933594 385.128906 Z M 143.910156 328.140625 C 144.03125 327.65625 144.433594 327.054688 144.875 326.855469 C 145.316406 326.652344 146.078125 326.652344 146.480469 326.894531 C 147.203125 327.335938 147.886719 327.9375 148.371094 328.621094 C 159.859375 343.640625 171.308594 358.742188 182.839844 373.761719 C 196.699219 391.796875 210.558594 409.75 224.539062 427.699219 C 245.667969 454.808594 266.800781 481.917969 288.011719 508.988281 C 293.59375 516.097656 299.378906 523.003906 305.085938 529.992188 C 306.933594 532.242188 308.78125 534.53125 310.425781 536.902344 C 310.988281 537.703125 310.949219 538.867188 311.472656 541.15625 C 308.941406 539.871094 307.335938 539.390625 306.167969 538.386719 C 300.144531 533.328125 294.4375 527.863281 288.210938 523.125 C 279.292969 516.296875 272.464844 507.664062 265.714844 498.90625 C 259.851562 491.277344 253.902344 483.726562 248 476.136719 C 237.835938 463.003906 227.671875 449.871094 217.546875 436.695312 C 199.792969 413.605469 182.515625 390.148438 162.671875 368.703125 C 160.503906 366.332031 158.292969 364.003906 156.484375 361.351562 C 154.71875 358.742188 153.03125 355.972656 151.984375 353 C 149.171875 345.367188 146.722656 337.578125 144.152344 329.824219 C 143.871094 329.304688 143.75 328.660156 143.910156 328.140625 Z M 138.808594 290.910156 C 138.769531 290.066406 138.808594 289.140625 139.007812 288.339844 C 139.128906 287.855469 139.652344 287.214844 140.09375 287.132812 C 140.859375 286.972656 142.023438 286.851562 142.464844 287.292969 C 143.507812 288.257812 144.273438 289.503906 145.074219 290.707031 C 150.941406 299.421875 156.363281 308.417969 162.710938 316.734375 C 173.519531 330.871094 184.765625 344.6875 196.136719 358.339844 C 216.664062 383 236.347656 408.300781 255.472656 434.046875 C 267.484375 450.191406 279.496094 466.335938 291.867188 482.199219 C 303.679688 497.382812 315.929688 512.242188 328.0625 527.183594 C 340.597656 542.5625 353.25 557.785156 365.824219 573.125 C 366.871094 574.371094 367.472656 575.976562 369.359375 579.273438 C 366.066406 578.308594 364.863281 578.1875 363.9375 577.625 C 356.746094 573.167969 349.554688 568.710938 342.484375 564.089844 C 340.316406 562.683594 338.308594 560.835938 336.539062 558.949219 C 331.558594 553.609375 326.417969 548.386719 321.875 542.683594 C 307.695312 524.890625 293.796875 506.898438 279.734375 488.988281 C 263.503906 468.34375 247.195312 447.78125 230.925781 427.179688 C 217.386719 410.03125 203.726562 392.921875 190.351562 375.652344 C 177.496094 359.0625 164.960938 342.195312 152.226562 325.488281 C 149.574219 321.996094 146.84375 318.582031 144.152344 315.167969 C 141.179688 311.351562 139.773438 307.015625 139.570312 302.195312 C 139.453125 298.460938 139.050781 294.683594 138.808594 290.910156 Z M 138.207031 266.332031 C 138.445312 265.285156 138.609375 264.441406 138.847656 263.597656 C 139.371094 261.832031 141.902344 261.148438 143.105469 262.394531 C 143.507812 262.796875 143.871094 263.277344 144.230469 263.71875 C 152.308594 274.441406 160.179688 285.285156 168.457031 295.808594 C 181.269531 312.074219 194.570312 327.980469 207.34375 344.246094 C 226.667969 368.78125 245.667969 393.523438 264.910156 418.101562 C 275.515625 431.636719 286.324219 445.050781 297.050781 458.503906 C 311.59375 476.738281 326.457031 494.730469 340.675781 513.246094 C 355.21875 532.242188 369.28125 551.601562 385.429688 569.3125 C 389.929688 574.292969 394.390625 579.3125 398.769531 584.414062 C 400.617188 586.539062 400.011719 589.03125 397.363281 590.035156 C 395.792969 590.636719 393.988281 590.957031 392.339844 590.757812 C 386.796875 589.996094 382.820312 586.742188 379.484375 582.40625 C 373.257812 574.292969 367.113281 566.140625 360.683594 558.226562 C 345.054688 538.949219 329.109375 519.992188 313.640625 500.59375 C 298.015625 480.996094 282.75 461.074219 267.523438 441.15625 C 259.570312 430.710938 252.417969 419.667969 244.261719 409.386719 C 225.542969 385.890625 206.660156 362.519531 187.378906 339.464844 C 171.46875 320.429688 157.289062 300.105469 142.625 280.105469 C 139.53125 275.890625 139.089844 270.988281 138.207031 266.332031 Z M 138.207031 266.332031 " fill-opacity="1" fill-rule="nonzero"/><path fill="#ff3600" d="M 594.53125 365.824219 C 599.730469 368.335938 606.5625 367.042969 611.90625 367.996094 C 612.402344 374.933594 613.332031 381.21875 612.628906 387.523438 C 608.683594 387.367188 603.929688 388.019531 601.046875 386.800781 C 598.652344 390.691406 598.363281 398.347656 600.320312 402.714844 C 612.128906 403.308594 617.367188 404.101562 630.007812 403.4375 C 631.527344 413.941406 633.007812 432.351562 631.453125 446.113281 C 603.988281 446.457031 573.265625 448.003906 547.476562 442.496094 C 548.757812 417.230469 546.855469 390.410156 546.027344 363.65625 C 545.328125 341.183594 539.257812 315.003906 540.957031 290.597656 C 572.390625 284.636719 596.386719 288.753906 625.660156 280.472656 C 625.882812 280.410156 626.15625 280.523438 626.386719 280.472656 C 629.503906 282.179688 628.359375 286.835938 628.558594 289.875 C 629.40625 302.832031 632.730469 318.734375 632.175781 333.277344 C 619.625 335.195312 606.105469 331.757812 596.703125 336.890625 C 592.9375 343.496094 595.09375 356.019531 594.53125 365.824219 " fill-opacity="1" fill-rule="nonzero"/><path fill="#c92d2d" d="M 623.105469 338.902344 C 623.476562 338.953125 623.847656 339.007812 624.214844 339.0625 C 618.148438 347.769531 605.617188 353.679688 602.492188 362.933594 C 596.835938 360.117188 598.707031 347.78125 600.320312 341.234375 C 601.148438 340.785156 602.050781 340.398438 603.015625 340.0625 C 603.566406 339.875 604.140625 339.699219 604.734375 339.542969 C 605.171875 339.425781 605.625 339.316406 606.089844 339.21875 C 606.394531 339.152344 606.707031 339.089844 607.019531 339.035156 C 607.335938 338.976562 607.652344 338.921875 607.976562 338.871094 C 608.296875 338.824219 608.621094 338.777344 608.949219 338.734375 C 609.277344 338.691406 609.605469 338.652344 609.9375 338.621094 C 610.269531 338.585938 610.605469 338.554688 610.941406 338.527344 C 612.855469 338.371094 614.835938 338.332031 616.820312 338.390625 C 617.183594 338.402344 617.542969 338.417969 617.90625 338.433594 C 618.910156 338.484375 619.910156 338.554688 620.898438 338.652344 C 621.449219 338.707031 622 338.765625 622.542969 338.832031 C 622.730469 338.855469 622.917969 338.878906 623.105469 338.902344 " fill-opacity="1" fill-rule="nonzero"/><g clip-path="url(#id1)"><path fill="#1d1d1d" d="M 499.691406 392.585938 C 501.085938 397.375 501.238281 399.289062 501.867188 404.160156 C 508.222656 401.109375 514.597656 398.078125 518.515625 392.585938 C 512.460938 391.820312 507.183594 392.636719 499.691406 392.585938 Z M 216.628906 430.199219 C 218.417969 438.90625 215.472656 444.902344 217.351562 454.070312 C 242.339844 456.25 261.46875 456.554688 283.957031 451.902344 C 275.671875 404.597656 263.59375 347.179688 262.238281 304.34375 C 258.433594 303.847656 254.613281 303.371094 250.753906 302.929688 C 242.269531 301.960938 233.605469 301.164062 224.589844 300.726562 C 223.910156 308.5625 225.890625 315.390625 224.589844 321.703125 C 214.316406 321.085938 207.769531 324.121094 199.253906 321.703125 C 200.113281 313.15625 202.335938 305.972656 201.425781 295.664062 C 174.730469 295.203125 153.347656 286.371094 129.03125 290.597656 C 133.359375 348.03125 130.132812 397.773438 125.414062 451.175781 C 147.527344 451.722656 168.289062 452.433594 191.289062 452.625 C 194.171875 445.101562 193.695312 434.707031 195.632812 428.03125 C 202.386719 426.210938 211.226562 428.289062 216.628906 430.199219 Z M 370.105469 423.691406 C 375.683594 430.007812 377.839844 438.703125 386.035156 441.050781 C 396.914062 444.167969 409.035156 438.058594 420.058594 437.433594 C 408.886719 409.058594 401.429688 376.964844 388.207031 350.632812 C 365.300781 354.777344 334.722656 347.242188 310.742188 349.1875 C 307.601562 356.699219 305.238281 364.789062 303.011719 373.265625 C 301.488281 379.066406 300.03125 385.046875 298.433594 391.140625 C 298.3125 391.601562 298.1875 392.066406 298.0625 392.535156 C 297.613281 394.167969 297.128906 395.816406 296.621094 397.480469 C 296.476562 397.953125 296.328125 398.433594 296.183594 398.910156 C 296.109375 399.148438 296.03125 399.386719 295.957031 399.625 C 295.808594 400.105469 295.65625 400.585938 295.503906 401.066406 C 295.351562 401.546875 295.199219 402.027344 295.046875 402.507812 C 294.8125 403.230469 294.582031 403.957031 294.347656 404.683594 C 294.195312 405.164062 294.039062 405.648438 293.882812 406.136719 C 293.570312 407.105469 293.261719 408.078125 292.953125 409.050781 C 292.800781 409.539062 292.648438 410.027344 292.496094 410.511719 C 289.101562 421.402344 286.246094 432.417969 287.574219 442.496094 C 309.316406 444.761719 333.292969 443.296875 359.246094 441.773438 C 363.410156 436.285156 364.144531 427.375 370.105469 423.691406 Z M 601.046875 386.800781 C 603.925781 388.019531 608.683594 387.367188 612.628906 387.523438 C 613.332031 381.21875 612.40625 374.933594 611.90625 367.996094 C 606.5625 367.042969 599.726562 368.335938 594.53125 365.824219 C 595.09375 356.019531 592.9375 343.496094 596.703125 336.890625 C 606.105469 331.757812 619.625 335.195312 632.175781 333.273438 C 632.730469 318.734375 629.40625 302.832031 628.558594 289.875 C 628.359375 286.835938 629.503906 282.179688 626.386719 280.472656 C 626.15625 280.523438 625.882812 280.410156 625.660156 280.472656 C 596.386719 288.753906 572.390625 284.636719 540.960938 290.597656 C 539.257812 315.003906 545.328125 341.183594 546.027344 363.65625 C 546.855469 390.410156 548.757812 417.230469 547.476562 442.496094 C 573.269531 448.003906 603.984375 446.457031 631.453125 446.113281 C 633.007812 432.351562 631.523438 413.941406 630.007812 403.4375 C 617.367188 404.101562 612.128906 403.308594 600.320312 402.714844 C 598.363281 398.347656 598.652344 390.691406 601.046875 386.800781 Z M 602.492188 362.933594 C 605.621094 353.675781 618.148438 347.769531 624.214844 339.0625 C 623.847656 339.007812 623.476562 338.953125 623.105469 338.902344 C 622.917969 338.878906 622.730469 338.855469 622.542969 338.832031 C 622 338.765625 621.449219 338.707031 620.898438 338.652344 C 619.910156 338.554688 618.910156 338.484375 617.910156 338.433594 C 617.546875 338.417969 617.183594 338.402344 616.824219 338.390625 C 614.839844 338.332031 612.855469 338.371094 610.945312 338.527344 C 610.605469 338.550781 610.273438 338.582031 609.941406 338.617188 C 609.605469 338.652344 609.277344 338.691406 608.949219 338.734375 C 608.621094 338.777344 608.296875 338.820312 607.976562 338.871094 C 607.65625 338.921875 607.339844 338.976562 607.023438 339.035156 C 607.023438 339.035156 607.023438 339.035156 607.019531 339.035156 C 606.707031 339.089844 606.394531 339.152344 606.089844 339.21875 C 605.625 339.316406 605.171875 339.425781 604.734375 339.542969 C 604.140625 339.699219 603.570312 339.875 603.019531 340.0625 C 602.050781 340.398438 601.148438 340.785156 600.320312 341.234375 C 598.707031 347.78125 596.839844 360.117188 602.492188 362.933594 Z M 527.203125 387.523438 C 526.804688 376.152344 525.046875 361.484375 525.03125 352.804688 C 491.390625 353.03125 454.007812 352.425781 422.957031 353.527344 C 422.890625 364.578125 421.191406 375.285156 422.230469 385.355469 C 436.175781 385.285156 445.695312 385.859375 458.429688 387.523438 C 459.378906 405.792969 458.539062 423.035156 457.707031 441.050781 C 469.457031 443.082031 482.890625 441.453125 494.628906 441.773438 C 499.011719 423.707031 492.410156 402.878906 496.074219 387.523438 C 506.933594 387.175781 518.847656 386.660156 527.203125 387.523438 Z M 517.792969 347.019531 C 517.859375 347.027344 517.929688 347.039062 518 347.046875 C 518.113281 347.058594 518.230469 347.070312 518.347656 347.082031 C 518.359375 347.082031 518.371094 347.082031 518.378906 347.082031 C 518.570312 347.097656 518.761719 347.105469 518.960938 347.113281 C 522.074219 347.199219 526.203125 346.269531 527.929688 347.742188 C 529.988281 362.117188 531.007812 377.082031 531.546875 391.140625 C 525.332031 392.164062 523.050781 397.117188 518.515625 399.820312 C 521.324219 418.441406 518.308594 440.632812 524.308594 458.410156 C 537.914062 462.566406 557.136719 463.359375 573.535156 462.75 C 590.519531 462.121094 608.792969 461.394531 616.972656 452.625 C 595.761719 449.648438 563.378906 454.214844 542.40625 447.558594 C 545.425781 403.65625 541.183594 343.570312 535.167969 296.386719 C 525.820312 310.148438 509.855469 324.542969 517.792969 347.019531 Z M 297.710938 473.597656 C 308.101562 475.023438 323.773438 468.726562 338.976562 467.8125 C 352.101562 467.027344 359.40625 466.742188 372.277344 465.644531 C 375.210938 462.0625 376.789062 457.128906 380.964844 454.792969 C 386.023438 457.925781 387.734375 464.332031 394.722656 465.644531 C 400.761719 466.777344 408.070312 463.347656 415.71875 465.644531 C 418.21875 463.078125 418.015625 457.808594 420.785156 455.519531 C 423.816406 455.378906 425.117188 458.53125 428.023438 459.855469 C 434.992188 463.042969 448.332031 461.796875 455.535156 460.578125 C 462.058594 459.476562 468.9375 461.398438 472.90625 460.578125 C 480.636719 458.984375 485.867188 451.402344 489.558594 447.558594 C 477.914062 445.289062 462.453125 450.191406 453.359375 444.667969 C 454.558594 431.019531 455.453125 407.777344 453.359375 397.648438 C 443.859375 409.617188 437.703125 424.925781 425.125 433.816406 C 426.957031 436.742188 425.828125 438.25 426.574219 441.773438 C 412.109375 444.667969 395.8125 446.042969 383.136719 446.113281 C 377.769531 442.558594 374.441406 436.960938 369.382812 433.09375 C 365.113281 437.507812 364.714844 445.792969 359.96875 449.730469 C 335.484375 446.496094 317.667969 452.328125 289.75 448.285156 C 289.664062 451.816406 290.136719 455.90625 289.023438 458.410156 C 267.753906 460.210938 240.234375 463.023438 213.734375 460.578125 C 210.875 453.300781 212.023438 444.050781 213.007812 435.265625 C 209.320312 433.644531 204.703125 432.953125 199.253906 433.09375 C 197.941406 442.464844 198.234375 454.546875 194.1875 459.132812 C 174.460938 459.554688 154.101562 456.222656 131.925781 458.410156 C 142.675781 462.179688 152.152344 469.214844 164.503906 472.152344 C 177.105469 475.148438 195.027344 469.734375 207.941406 476.492188 C 211.203125 462.367188 219.859375 474.765625 226.765625 477.214844 C 235.984375 480.492188 264.53125 475.375 274.546875 480.109375 C 278.898438 478.746094 280.703125 469.6875 286.851562 469.257812 C 290.039062 469.039062 294.601562 473.175781 297.710938 473.597656 Z M 638.691406 432.371094 C 638.703125 441.414062 638.402344 450.070312 634.347656 454.070312 C 623.824219 455.128906 619.433594 462.3125 611.90625 466.367188 C 593.765625 470.046875 569.535156 470.710938 549.648438 469.984375 C 539.796875 469.621094 520.136719 468.527344 517.066406 460.578125 C 515.324219 456.058594 515.425781 448.199219 514.894531 442.496094 C 513.777344 430.480469 515.078125 417.289062 513.449219 406.332031 C 510.976562 406.046875 506.589844 410.074219 503.3125 411.390625 C 501.300781 425.878906 506.195312 444.042969 500.417969 455.519531 C 497.742188 460.835938 491.335938 461.148438 488.109375 465.644531 C 485.34375 465.992188 483.488281 465.4375 482.320312 464.195312 C 477.40625 469.246094 469.503906 466.871094 457.707031 467.8125 C 444.863281 468.835938 432.992188 471.382812 424.402344 466.367188 C 421.378906 467.925781 421.09375 472.21875 417.890625 473.597656 C 403.105469 471.0625 387.609375 476.550781 380.964844 464.917969 C 378.671875 466.96875 377.871094 470.503906 375.898438 472.875 C 363.347656 474.269531 348.9375 472.800781 334.632812 475.046875 C 322.957031 476.878906 300.554688 484.792969 287.574219 477.214844 C 282.621094 477.519531 282.292969 486.757812 275.992188 487.339844 C 268.894531 488 252.488281 483.726562 239.070312 483.726562 C 228.390625 483.726562 219.414062 484.132812 215.183594 477.941406 C 212.15625 489.984375 196.40625 478.792969 184.777344 477.941406 C 178.222656 477.460938 170.648438 480.820312 165.230469 480.109375 C 161.660156 479.640625 157.839844 476.027344 153.644531 474.320312 C 141.636719 469.445312 125.644531 464.894531 118.171875 457.6875 C 122.316406 414.769531 124.179688 362.714844 122.515625 310.851562 C 122.335938 305.179688 123.832031 299.714844 123.238281 294.9375 C 122.5 288.949219 119.171875 284.429688 125.414062 279.75 C 151.253906 281.636719 181.796875 282.523438 206.492188 284.8125 C 210.15625 290.636719 207.445312 304.996094 207.21875 313.746094 C 209.167969 315.414062 214.199219 314.003906 217.351562 314.46875 C 217.511719 306.714844 214.292969 300.367188 218.078125 293.492188 C 233.742188 292.128906 249.472656 296.796875 266.578125 296.386719 C 275.734375 319.308594 290.273438 336.851562 299.882812 359.316406 C 302.570312 353.800781 302.484375 345.519531 306.398438 341.234375 C 339.765625 339.542969 362.742188 348.492188 393.273438 342.679688 C 396.855469 348.746094 398.589844 356.65625 401.238281 363.65625 C 407.589844 359.152344 414.183594 348.621094 420.058594 341.234375 C 424.242188 340.667969 424.5625 343.964844 426.574219 345.570312 C 453.085938 346.105469 479.53125 345.472656 509.832031 345.570312 C 504.53125 323.945312 515.460938 316.695312 522.859375 304.34375 C 527.597656 296.433594 531.65625 289.390625 536.617188 283.367188 C 542.992188 280.644531 548.914062 280 557.609375 280.472656 C 582.613281 281.839844 611.050781 275.003906 633.621094 273.242188 C 633.660156 292.890625 639.59375 315.40625 637.964844 338.339844 C 627.75 344.042969 620.101562 352.316406 611.90625 360.035156 C 622.171875 362.824219 618.886719 382.925781 618.421875 394.035156 C 615.597656 395.554688 610.097656 394.394531 606.117188 394.757812 C 612.1875 399.0625 626.289062 395.335938 634.347656 397.648438 C 637.359375 405.355469 638.679688 420.257812 638.691406 432.371094 Z M 445.398438 399.820312 C 447.371094 396.96875 451.132812 394.546875 450.464844 391.863281 C 439.070312 390.960938 432.125 390.441406 421.503906 391.140625 C 423.449219 400.84375 421.4375 415.636719 425.851562 425.859375 C 433.613281 419.523438 439.667969 408.117188 445.398438 399.820312 Z M 419.335938 419.351562 C 417.046875 408.582031 419.132812 396.527344 415.71875 386.078125 C 419.617188 380.222656 417.96875 361.464844 417.164062 355.699219 C 412 361.628906 407.710938 368.433594 402.6875 374.503906 C 409.484375 388.207031 412.246094 405.941406 419.335938 419.351562 Z M 284.679688 425.136719 C 289.273438 401.921875 302.492188 379.644531 293.367188 357.871094 C 290.386719 350.746094 284.515625 342.980469 280.335938 336.167969 C 275.617188 328.472656 272.21875 320.742188 267.304688 315.191406 C 270.777344 349.714844 276.605469 390.808594 284.679688 425.136719 " fill-opacity="1" fill-rule="nonzero"/></g><path fill="#c92d2d" d="M 535.167969 296.386719 C 541.183594 343.570312 545.421875 403.65625 542.40625 447.558594 C 563.378906 454.21875 595.761719 449.648438 616.972656 452.625 C 608.792969 461.394531 590.519531 462.121094 573.535156 462.75 C 557.136719 463.359375 537.914062 462.566406 524.308594 458.410156 C 518.304688 440.632812 521.324219 418.441406 518.515625 399.820312 C 523.050781 397.117188 525.332031 392.164062 531.546875 391.140625 C 531.007812 377.082031 529.988281 362.117188 527.929688 347.742188 C 526.203125 346.269531 522.074219 347.199219 518.960938 347.113281 C 518.761719 347.109375 518.566406 347.097656 518.378906 347.085938 C 518.367188 347.082031 518.359375 347.082031 518.351562 347.082031 C 518.230469 347.070312 518.113281 347.058594 517.996094 347.046875 C 517.929688 347.039062 517.855469 347.027344 517.789062 347.019531 C 509.855469 324.546875 525.820312 310.148438 535.167969 296.386719 " fill-opacity="1" fill-rule="nonzero"/><path fill="#ff3600" d="M 525.03125 352.804688 C 525.046875 361.484375 526.804688 376.152344 527.203125 387.523438 C 518.847656 386.660156 506.933594 387.175781 496.074219 387.523438 C 492.410156 402.878906 499.011719 423.707031 494.625 441.773438 C 482.886719 441.453125 469.457031 443.082031 457.707031 441.050781 C 458.542969 423.035156 459.378906 405.792969 458.429688 387.523438 C 445.699219 385.859375 436.175781 385.285156 422.230469 385.355469 C 421.195312 375.285156 422.890625 364.578125 422.957031 353.527344 C 454.007812 352.425781 491.390625 353.03125 525.03125 352.804688 " fill-opacity="1" fill-rule="nonzero"/><path fill="#1d1d1d" d="M 518.960938 347.113281 C 518.761719 347.105469 518.566406 347.097656 518.378906 347.082031 C 518.570312 347.097656 518.765625 347.105469 518.960938 347.113281 " fill-opacity="1" fill-rule="nonzero"/><path fill="#1d1d1d" d="M 518 347.046875 C 518.113281 347.058594 518.230469 347.070312 518.351562 347.082031 C 518.230469 347.070312 518.113281 347.058594 518 347.046875 " fill-opacity="1" fill-rule="nonzero"/><path fill="#c92d2d" d="M 499.691406 392.585938 C 507.183594 392.636719 512.460938 391.820312 518.515625 392.585938 C 514.597656 398.078125 508.21875 401.109375 501.863281 404.160156 C 501.238281 399.289062 501.085938 397.375 499.691406 392.585938 " fill-opacity="1" fill-rule="nonzero"/><path fill="#c92d2d" d="M 369.382812 433.09375 C 374.441406 436.960938 377.769531 442.558594 383.140625 446.113281 C 395.8125 446.042969 412.109375 444.667969 426.574219 441.773438 C 425.832031 438.25 426.957031 436.742188 425.125 433.816406 C 437.703125 424.925781 443.859375 409.617188 453.359375 397.648438 C 455.449219 407.777344 454.558594 431.019531 453.359375 444.667969 C 462.453125 450.191406 477.914062 445.289062 489.558594 447.558594 C 485.867188 451.402344 480.636719 458.984375 472.90625 460.578125 C 468.9375 461.398438 462.058594 459.476562 455.53125 460.578125 C 448.332031 461.796875 434.992188 463.042969 428.023438 459.855469 C 425.117188 458.53125 423.816406 455.378906 420.785156 455.519531 C 418.011719 457.808594 418.21875 463.078125 415.714844 465.644531 C 408.070312 463.347656 400.761719 466.777344 394.722656 465.644531 C 387.730469 464.332031 386.019531 457.925781 380.964844 454.792969 C 376.785156 457.128906 375.210938 462.0625 372.277344 465.644531 C 359.40625 466.742188 352.101562 467.027344 338.976562 467.8125 C 323.773438 468.726562 308.101562 475.023438 297.710938 473.597656 C 294.601562 473.175781 290.039062 469.039062 286.851562 469.257812 C 280.703125 469.6875 278.898438 478.746094 274.546875 480.109375 C 264.53125 475.375 235.984375 480.492188 226.765625 477.214844 C 219.859375 474.765625 211.203125 462.367188 207.9375 476.492188 C 195.023438 469.734375 177.105469 475.148438 164.503906 472.152344 C 152.152344 469.214844 142.675781 462.179688 131.925781 458.410156 C 154.101562 456.222656 174.460938 459.554688 194.1875 459.132812 C 198.234375 454.546875 197.941406 442.464844 199.253906 433.09375 C 204.703125 432.953125 209.320312 433.644531 213.007812 435.265625 C 212.023438 444.050781 210.875 453.300781 213.734375 460.578125 C 240.234375 463.023438 267.753906 460.210938 289.023438 458.410156 C 290.136719 455.90625 289.664062 451.816406 289.75 448.285156 C 317.667969 452.328125 335.480469 446.496094 359.96875 449.730469 C 364.714844 445.792969 365.113281 437.507812 369.382812 433.09375 " fill-opacity="1" fill-rule="nonzero"/><path fill="#c92d2d" d="M 450.464844 391.863281 C 451.132812 394.546875 447.367188 396.96875 445.394531 399.824219 C 439.664062 408.117188 433.613281 419.523438 425.851562 425.859375 C 421.4375 415.636719 423.449219 400.847656 421.503906 391.140625 C 432.121094 390.441406 439.066406 390.960938 450.464844 391.863281 " fill-opacity="1" fill-rule="nonzero"/><path fill="#ff3600" d="M 420.058594 437.433594 C 409.035156 438.058594 396.914062 444.167969 386.035156 441.050781 C 377.839844 438.703125 375.683594 430.007812 370.105469 423.691406 C 364.140625 427.375 363.410156 436.285156 359.246094 441.773438 C 333.292969 443.296875 309.316406 444.761719 287.574219 442.496094 C 286.246094 432.417969 289.101562 421.402344 292.496094 410.511719 C 292.648438 410.027344 292.800781 409.539062 292.953125 409.054688 C 293.261719 408.078125 293.570312 407.105469 293.882812 406.136719 C 294.039062 405.648438 294.195312 405.164062 294.351562 404.683594 C 294.582031 403.957031 294.8125 403.230469 295.046875 402.507812 C 295.199219 402.027344 295.355469 401.546875 295.503906 401.066406 C 295.65625 400.585938 295.808594 400.105469 295.957031 399.625 C 296.03125 399.386719 296.109375 399.148438 296.183594 398.910156 C 296.328125 398.433594 296.476562 397.957031 296.621094 397.480469 C 297.128906 395.816406 297.613281 394.167969 298.058594 392.535156 C 298.1875 392.066406 298.3125 391.601562 298.433594 391.140625 C 300.03125 385.046875 301.492188 379.066406 303.011719 373.265625 C 305.238281 364.789062 307.601562 356.699219 310.742188 349.1875 C 334.71875 347.242188 365.300781 354.777344 388.207031 350.632812 C 401.429688 376.964844 408.886719 409.058594 420.058594 437.433594 Z M 365.761719 403.4375 C 364.175781 395.800781 358.738281 387.867188 351.285156 383.90625 C 346.761719 389.996094 342.386719 396.234375 340.425781 404.886719 C 346.21875 405.402344 356.570312 403.359375 365.761719 403.4375 " fill-opacity="1" fill-rule="nonzero"/><path fill="#c92d2d" d="M 419.335938 419.351562 C 412.246094 405.941406 409.484375 388.207031 402.683594 374.503906 C 407.707031 368.433594 412 361.628906 417.160156 355.699219 C 417.964844 361.46875 419.613281 380.222656 415.714844 386.078125 C 419.128906 396.527344 417.046875 408.582031 419.335938 419.351562 " fill-opacity="1" fill-rule="nonzero"/><path fill="#1d1d1d" d="M 348.390625 398.375 C 352.027344 397.933594 356.945312 399.054688 358.523438 398.375 C 357.859375 394.453125 355.742188 391.992188 352.007812 391.140625 C 351.148438 393.898438 349.359375 395.726562 348.390625 398.375 Z M 351.285156 383.90625 C 358.738281 387.867188 364.175781 395.800781 365.761719 403.4375 C 356.570312 403.355469 346.21875 405.402344 340.425781 404.886719 C 342.386719 396.234375 346.761719 389.996094 351.285156 383.90625 " fill-opacity="1" fill-rule="nonzero"/><path fill="#c92d2d" d="M 352.007812 391.140625 C 355.742188 391.992188 357.859375 394.453125 358.523438 398.375 C 356.945312 399.054688 352.027344 397.933594 348.386719 398.375 C 349.359375 395.726562 351.148438 393.902344 352.007812 391.140625 " fill-opacity="1" fill-rule="nonzero"/><path fill="#c92d2d" d="M 280.335938 336.167969 C 284.515625 342.980469 290.386719 350.746094 293.367188 357.871094 C 302.492188 379.644531 289.273438 401.921875 284.679688 425.136719 C 276.605469 390.808594 270.777344 349.714844 267.304688 315.191406 C 272.21875 320.742188 275.617188 328.472656 280.335938 336.167969 " fill-opacity="1" fill-rule="nonzero"/><path fill="#ff3600" d="M 199.253906 321.703125 C 207.769531 324.121094 214.316406 321.085938 224.589844 321.703125 C 225.890625 315.390625 223.90625 308.5625 224.589844 300.726562 C 233.605469 301.164062 242.269531 301.960938 250.753906 302.929688 C 254.609375 303.371094 258.433594 303.847656 262.238281 304.34375 C 263.59375 347.179688 275.671875 404.597656 283.957031 451.902344 C 261.46875 456.554688 242.339844 456.25 217.351562 454.070312 C 215.472656 444.902344 218.417969 438.90625 216.628906 430.199219 C 211.226562 428.289062 202.386719 426.210938 195.632812 428.03125 C 193.695312 434.707031 194.171875 445.101562 191.289062 452.625 C 168.289062 452.433594 147.527344 451.722656 125.414062 451.175781 C 130.132812 397.773438 133.359375 348.03125 129.03125 290.597656 C 153.347656 286.371094 174.726562 295.203125 201.425781 295.664062 C 202.335938 305.972656 200.113281 313.15625 199.253906 321.703125 Z M 152.921875 332.550781 C 151.890625 332.378906 151.703125 331.359375 150.75 331.105469 C 150.019531 332.605469 148.457031 333.28125 147.046875 334.097656 C 146.953125 334.152344 146.863281 334.203125 146.773438 334.257812 C 146.503906 334.421875 146.242188 334.59375 145.996094 334.777344 C 145.914062 334.839844 145.832031 334.902344 145.753906 334.96875 C 145.714844 335.003906 145.675781 335.035156 145.636719 335.070312 C 145.5625 335.136719 145.488281 335.207031 145.414062 335.277344 C 144.582031 336.101562 144.058594 337.230469 144.234375 339.058594 C 148.808594 338.566406 151.308594 336.003906 152.921875 332.550781 Z M 150.027344 349.1875 C 153.476562 350.484375 157.074219 347.566406 158.710938 344.847656 C 155.496094 345.222656 152.910156 344.757812 151.351562 346.292969 C 151.117188 346.527344 150.902344 346.808594 150.714844 347.144531 C 150.609375 347.335938 150.511719 347.546875 150.421875 347.78125 C 150.375 347.894531 150.332031 348.015625 150.292969 348.140625 C 150.230469 348.328125 150.171875 348.53125 150.121094 348.746094 C 150.089844 348.886719 150.054688 349.035156 150.027344 349.1875 " fill-opacity="1" fill-rule="nonzero"/><path fill="#1d1d1d" d="M 158.710938 344.847656 C 157.074219 347.566406 153.476562 350.484375 150.027344 349.1875 C 150.054688 349.035156 150.089844 348.886719 150.121094 348.746094 C 150.175781 348.53125 150.230469 348.328125 150.292969 348.140625 C 150.332031 348.015625 150.375 347.894531 150.421875 347.78125 C 150.511719 347.546875 150.609375 347.335938 150.714844 347.144531 C 150.90625 346.808594 151.117188 346.527344 151.351562 346.292969 C 152.910156 344.757812 155.496094 345.222656 158.710938 344.847656 " fill-opacity="1" fill-rule="nonzero"/><path fill="#1d1d1d" d="M 152.921875 332.550781 C 151.308594 336.003906 148.808594 338.566406 144.234375 339.058594 C 144.058594 337.230469 144.582031 336.101562 145.414062 335.277344 C 145.488281 335.207031 145.5625 335.136719 145.636719 335.070312 C 145.675781 335.035156 145.714844 335.003906 145.753906 334.96875 C 145.832031 334.90625 145.914062 334.839844 145.996094 334.777344 C 146.242188 334.59375 146.503906 334.421875 146.773438 334.257812 C 146.863281 334.207031 146.953125 334.152344 147.046875 334.097656 C 148.457031 333.28125 150.019531 332.605469 150.75 331.105469 C 151.703125 331.359375 151.890625 332.378906 152.921875 332.550781 " fill-opacity="1" fill-rule="nonzero"/></svg>